<?xml version="1.0" encoding="UTF-8" standalone="no"?>
<!-- Created with Inkscape (http://www.inkscape.org/) -->

<svg
   xmlns:dc="http://purl.org/dc/elements/1.1/"
   xmlns:cc="http://creativecommons.org/ns#"
   xmlns:rdf="http://www.w3.org/1999/02/22-rdf-syntax-ns#"
   xmlns:svg="http://www.w3.org/2000/svg"
   xmlns="http://www.w3.org/2000/svg"
   xmlns:xlink="http://www.w3.org/1999/xlink"
   xmlns:sodipodi="http://sodipodi.sourceforge.net/DTD/sodipodi-0.dtd"
   xmlns:inkscape="http://www.inkscape.org/namespaces/inkscape"
   width="1600"
   height="1080"
   id="svg2"
   version="1.1"
   inkscape:version="0.48.2 r9819"
   inkscape:export-filename="/Users/klayman/Projects/lines/layout_test_2.png"
   inkscape:export-xdpi="90"
   inkscape:export-ydpi="90"
   sodipodi:docname="field.svg">
  <defs
     id="defs4">
    <linearGradient
       id="linearGradient4808">
      <stop
         style="stop-color:#000000;stop-opacity:0.17254902;"
         offset="0"
         id="stop4810" />
      <stop
         style="stop-color:#000000;stop-opacity:0.19607843;"
         offset="1"
         id="stop4812" />
    </linearGradient>
    <linearGradient
       id="linearGradient3921">
      <stop
         id="stop3923"
         offset="0"
         style="stop-color:#7cb5e6;stop-opacity:0;" />
      <stop
         style="stop-color:#57a8ed;stop-opacity:0;"
         offset="0.2"
         id="stop3933" />
      <stop
         id="stop3925"
         offset="1"
         style="stop-color:#0173ff;stop-opacity:1;" />
    </linearGradient>
    <linearGradient
       id="linearGradient9957">
      <stop
         style="stop-color:#000000;stop-opacity:0.13725491;"
         offset="0"
         id="stop9959" />
      <stop
         id="stop9961"
         offset="1"
         style="stop-color:#000000;stop-opacity:0;" />
    </linearGradient>
    <linearGradient
       id="linearGradient9937">
      <stop
         id="stop9939"
         offset="0"
         style="stop-color:#000000;stop-opacity:0;" />
      <stop
         style="stop-color:#000000;stop-opacity:0.23529412;"
         offset="0.25"
         id="stop9941" />
      <stop
         style="stop-color:#000000;stop-opacity:0.23529412;"
         offset="0.75"
         id="stop9943" />
      <stop
         id="stop9945"
         offset="1"
         style="stop-color:#000000;stop-opacity:0;" />
    </linearGradient>
    <linearGradient
       id="linearGradient9921">
      <stop
         style="stop-color:#ffffff;stop-opacity:0;"
         offset="0"
         id="stop9923" />
      <stop
         id="stop9931"
         offset="0.25"
         style="stop-color:#ffffff;stop-opacity:0.11764706;" />
      <stop
         id="stop9929"
         offset="0.75"
         style="stop-color:#ffffff;stop-opacity:0.11764706;" />
      <stop
         style="stop-color:#ffffff;stop-opacity:0;"
         offset="1"
         id="stop9925" />
    </linearGradient>
    <linearGradient
       id="linearGradient3592">
      <stop
         style="stop-color:#a3b2bf;stop-opacity:1;"
         offset="0"
         id="stop3594" />
      <stop
         style="stop-color:#274a75;stop-opacity:1;"
         offset="1"
         id="stop3596" />
    </linearGradient>
    <radialGradient
       inkscape:collect="always"
       xlink:href="#linearGradient3592"
       id="radialGradient3598"
       cx="800"
       cy="540"
       fx="800"
       fy="540"
       r="800.65"
       gradientTransform="matrix(0,0.90949385,-1.2899105,0,1496.5516,-187.59509)"
       gradientUnits="userSpaceOnUse" />
    <filter
       inkscape:collect="always"
       id="filter9869">
      <feGaussianBlur
         inkscape:collect="always"
         stdDeviation="9.6525"
         id="feGaussianBlur9871" />
    </filter>
    <clipPath
       clipPathUnits="userSpaceOnUse"
       id="clipPath9873">
      <rect
         rx="3"
         y="356"
         x="335"
         height="369"
         width="369"
         id="rect9875"
         style="color:#000000;fill:#f8d99e;fill-opacity:1;fill-rule:nonzero;stroke:none;stroke-width:1;marker:none;visibility:visible;display:inline;overflow:visible;enable-background:accumulate" />
    </clipPath>
    <filter
       inkscape:collect="always"
       id="filter9911">
      <feGaussianBlur
         inkscape:collect="always"
         stdDeviation="10.58"
         id="feGaussianBlur9913" />
    </filter>
    <clipPath
       clipPathUnits="userSpaceOnUse"
       id="clipPath9915">
      <rect
         style="color:#000000;fill:#f8d99e;fill-opacity:1;fill-rule:nonzero;stroke:none;stroke-width:1;marker:none;visibility:visible;display:inline;overflow:visible;enable-background:accumulate"
         id="rect9917"
         width="469"
         height="469"
         x="845"
         y="306"
         rx="4.5" />
    </clipPath>
    <linearGradient
       inkscape:collect="always"
       xlink:href="#linearGradient9921"
       id="linearGradient9927"
       x1="844"
       y1="206.86217"
       x2="1315"
       y2="206.86217"
       gradientUnits="userSpaceOnUse"
       gradientTransform="translate(0,0.999998)" />
    <linearGradient
       inkscape:collect="always"
       xlink:href="#linearGradient9937"
       id="linearGradient9935"
       gradientUnits="userSpaceOnUse"
       x1="844"
       y1="206.86217"
       x2="1315"
       y2="206.86217"
       gradientTransform="translate(0,-3.9999998e-6)" />
    <radialGradient
       inkscape:collect="always"
       xlink:href="#linearGradient9957"
       id="radialGradient9955"
       cx="1074.5"
       cy="49.500011"
       fx="1074.5"
       fy="49.500011"
       r="227"
       gradientTransform="matrix(-1.0374473,-1.1476158e-6,3.3536957e-7,-0.30396477,2194.2373,223.40966)"
       gradientUnits="userSpaceOnUse" />
    <linearGradient
       inkscape:collect="always"
       xlink:href="#linearGradient9937"
       id="linearGradient9980"
       gradientUnits="userSpaceOnUse"
       gradientTransform="translate(0,-3.9999998e-6)"
       x1="844"
       y1="206.86217"
       x2="1315"
       y2="206.86217" />
    <linearGradient
       inkscape:collect="always"
       xlink:href="#linearGradient9921"
       id="linearGradient9982"
       gradientUnits="userSpaceOnUse"
       gradientTransform="translate(0,0.999998)"
       x1="844"
       y1="206.86217"
       x2="1315"
       y2="206.86217" />
    <radialGradient
       inkscape:collect="always"
       xlink:href="#linearGradient9957"
       id="radialGradient9984"
       gradientUnits="userSpaceOnUse"
       gradientTransform="matrix(-1.0374473,-1.1476158e-6,3.3536957e-7,-0.30396477,2194.2373,223.40966)"
       cx="1074.5"
       cy="49.500011"
       fx="1074.5"
       fy="49.500011"
       r="227" />
    <radialGradient
       inkscape:collect="always"
       xlink:href="#linearGradient9957"
       id="radialGradient9987"
       gradientUnits="userSpaceOnUse"
       gradientTransform="matrix(-1.0374473,-1.1476158e-6,3.3536957e-7,-0.30396477,2194.2373,-802.31464)"
       cx="1074.5"
       cy="49.500011"
       fx="1074.5"
       fy="49.500011"
       r="227" />
    <linearGradient
       inkscape:collect="always"
       xlink:href="#linearGradient9921"
       id="linearGradient9990"
       gradientUnits="userSpaceOnUse"
       gradientTransform="matrix(1,0,0,-1,0,1025.7243)"
       x1="844"
       y1="206.86217"
       x2="1315"
       y2="206.86217" />
    <linearGradient
       inkscape:collect="always"
       xlink:href="#linearGradient9937"
       id="linearGradient9993"
       gradientUnits="userSpaceOnUse"
       gradientTransform="matrix(1,0,0,-1,0,1024.7243)"
       x1="844"
       y1="206.86217"
       x2="1315"
       y2="206.86217" />
    <linearGradient
       inkscape:collect="always"
       xlink:href="#linearGradient9937"
       id="linearGradient9995"
       gradientUnits="userSpaceOnUse"
       gradientTransform="translate(0,-3.9999998e-6)"
       x1="844"
       y1="206.86217"
       x2="1315"
       y2="206.86217" />
    <linearGradient
       inkscape:collect="always"
       xlink:href="#linearGradient9921"
       id="linearGradient9997"
       gradientUnits="userSpaceOnUse"
       gradientTransform="translate(0,0.999998)"
       x1="844"
       y1="206.86217"
       x2="1315"
       y2="206.86217" />
    <radialGradient
       inkscape:collect="always"
       xlink:href="#linearGradient9957"
       id="radialGradient9999"
       gradientUnits="userSpaceOnUse"
       gradientTransform="matrix(-1.0374473,-1.1476158e-6,3.3536957e-7,-0.30396477,2194.2373,223.40966)"
       cx="1074.5"
       cy="49.500011"
       fx="1074.5"
       fy="49.500011"
       r="227" />
    <radialGradient
       inkscape:collect="always"
       xlink:href="#linearGradient9957"
       id="radialGradient10002"
       gradientUnits="userSpaceOnUse"
       gradientTransform="matrix(-1.0374473,-1.1476158e-6,3.3536957e-7,-0.30396477,2194.2373,223.40966)"
       cx="1074.5"
       cy="49.500011"
       fx="1074.5"
       fy="49.500011"
       r="227" />
    <linearGradient
       inkscape:collect="always"
       xlink:href="#linearGradient9921"
       id="linearGradient10005"
       gradientUnits="userSpaceOnUse"
       gradientTransform="translate(0,0.999998)"
       x1="844"
       y1="206.86217"
       x2="1315"
       y2="206.86217" />
    <linearGradient
       inkscape:collect="always"
       xlink:href="#linearGradient9937"
       id="linearGradient10008"
       gradientUnits="userSpaceOnUse"
       gradientTransform="translate(0,-3.9999998e-6)"
       x1="844"
       y1="206.86217"
       x2="1315"
       y2="206.86217" />
    <linearGradient
       inkscape:collect="always"
       xlink:href="#linearGradient9937"
       id="linearGradient10036"
       gradientUnits="userSpaceOnUse"
       gradientTransform="translate(0,-3.9999998e-6)"
       x1="844"
       y1="206.86217"
       x2="1315"
       y2="206.86217" />
    <linearGradient
       inkscape:collect="always"
       xlink:href="#linearGradient9921"
       id="linearGradient10038"
       gradientUnits="userSpaceOnUse"
       gradientTransform="translate(0,0.999998)"
       x1="844"
       y1="206.86217"
       x2="1315"
       y2="206.86217" />
    <radialGradient
       inkscape:collect="always"
       xlink:href="#linearGradient9957"
       id="radialGradient10040"
       gradientUnits="userSpaceOnUse"
       gradientTransform="matrix(-1.0374473,-1.1476158e-6,3.3536957e-7,-0.30396477,2194.2373,223.40966)"
       cx="1074.5"
       cy="49.500011"
       fx="1074.5"
       fy="49.500011"
       r="227" />
    <linearGradient
       inkscape:collect="always"
       xlink:href="#linearGradient9937"
       id="linearGradient10042"
       gradientUnits="userSpaceOnUse"
       gradientTransform="matrix(1,0,0,-1,0,1024.7243)"
       x1="844"
       y1="206.86217"
       x2="1315"
       y2="206.86217" />
    <linearGradient
       inkscape:collect="always"
       xlink:href="#linearGradient9921"
       id="linearGradient10044"
       gradientUnits="userSpaceOnUse"
       gradientTransform="matrix(1,0,0,-1,0,1025.7243)"
       x1="844"
       y1="206.86217"
       x2="1315"
       y2="206.86217" />
    <radialGradient
       inkscape:collect="always"
       xlink:href="#linearGradient9957"
       id="radialGradient10046"
       gradientUnits="userSpaceOnUse"
       gradientTransform="matrix(-1.0374473,-1.1476158e-6,3.3536957e-7,-0.30396477,2194.2373,-802.31464)"
       cx="1074.5"
       cy="49.500011"
       fx="1074.5"
       fy="49.500011"
       r="227" />
    <radialGradient
       inkscape:collect="always"
       xlink:href="#linearGradient3921"
       id="radialGradient3927"
       gradientUnits="userSpaceOnUse"
       gradientTransform="matrix(0,0.90949385,-1.2899105,0,1496.5516,-187.59509)"
       cx="800"
       cy="540"
       fx="800"
       fy="540"
       r="800.65002" />
    <mask
       maskUnits="userSpaceOnUse"
       id="mask3929">
      <image
         y="40"
         x="300"
         id="image3931"
         xlink:href="file:///home/semyon/projects/lines-2012/concept/png/temp-mask.png"
         height="1000"
         width="1000" />
    </mask>
    <clipPath
       clipPathUnits="userSpaceOnUse"
       id="clipPath4804">
      <rect
         rx="4.5"
         y="278.36218"
         x="-675"
         height="469"
         width="469"
         id="rect4806"
         style="color:#000000;fill:#ffffff;fill-opacity:1;fill-rule:nonzero;stroke:none;stroke-width:1;marker:none;visibility:visible;display:inline;overflow:visible;enable-background:accumulate" />
    </clipPath>
    <radialGradient
       inkscape:collect="always"
       xlink:href="#linearGradient4808"
       id="radialGradient4814"
       cx="-440.5"
       cy="512.86217"
       fx="-440.5"
       fy="512.86217"
       r="235.5"
       gradientUnits="userSpaceOnUse" />
  </defs>
  <sodipodi:namedview
     id="base"
     pagecolor="#ffffff"
     bordercolor="#666666"
     borderopacity="1.0"
     inkscape:pageopacity="0.0"
     inkscape:pageshadow="2"
     inkscape:zoom="1"
     inkscape:cx="-442.03283"
     inkscape:cy="532.32586"
     inkscape:document-units="px"
     inkscape:current-layer="layer1"
     showgrid="true"
     inkscape:snap-grids="true"
     inkscape:window-width="1568"
     inkscape:window-height="991"
     inkscape:window-x="201"
     inkscape:window-y="42"
     inkscape:window-maximized="0"
     inkscape:snap-bbox="true"
     inkscape:snap-bbox-edge-midpoints="true">
    <inkscape:grid
       type="xygrid"
       id="grid2816"
       empspacing="2"
       visible="true"
       enabled="false"
       snapvisiblegridlinesonly="true"
       spacingx="0.5px"
       spacingy="0.5px" />
  </sodipodi:namedview>
  <metadata
     id="metadata7">
    <rdf:RDF>
      <cc:Work
         rdf:about="">
        <dc:format>image/svg+xml</dc:format>
        <dc:type
           rdf:resource="http://purl.org/dc/dcmitype/StillImage" />
        <dc:title></dc:title>
      </cc:Work>
    </rdf:RDF>
  </metadata>
  <g
     inkscape:label="Layer 1"
     inkscape:groupmode="layer"
     id="layer1"
     transform="translate(0,27.637832)">
    <path
       style="opacity:1;fill:url(#radialGradient4814);fill-opacity:1;fill-rule:nonzero;stroke:#000000;stroke-width:1;stroke-linecap:round;stroke-linejoin:round;stroke-miterlimit:4;stroke-opacity:0.23529412;stroke-dasharray:none;stroke-dashoffset:0;color:#000000;marker:none;visibility:visible;display:inline;overflow:visible;enable-background:accumulate"
       d="m -670.5,277.86217 c -2.77,0 -5,2.23 -5,5 l 0,460 c 0,2.77 2.23,5 5,5 l 460,0 c 2.77,0 5,-2.23 5,-5 l 0,-460 c 0,-2.77 -2.23,-5 -5,-5 l -460,0 z"
       id="path3068" />
    <image
       y="257.36218"
       x="-696"
       id="image4779"
       xlink:href="file:///home/semyon/projects/lines-2012/concept/png/pages-back-pattern.png"
       height="512"
       width="512"
       clip-path="url(#clipPath4804)"
       style="opacity:0.11" />
    <rect
       style="fill:url(#radialGradient3598);fill-opacity:1;fill-rule:nonzero;stroke:none;stroke-width:1.29999994999999990;stroke-linecap:round;stroke-linejoin:round;stroke-miterlimit:4;stroke-opacity:1;stroke-dasharray:none;stroke-dashoffset:0"
       id="rect2818"
       width="1600"
       height="1080"
       x="0"
       y="0"
       transform="translate(0,-27.637832)" />
    <rect
       y="0"
       x="0"
       height="1080"
       width="1600"
       id="rect3890"
       style="fill:url(#radialGradient3927);fill-opacity:1;fill-rule:nonzero;stroke:none;stroke-width:1.29999994999999990;stroke-linecap:round;stroke-linejoin:round;stroke-miterlimit:4;stroke-opacity:1;stroke-dasharray:none;stroke-dashoffset:0"
       transform="translate(0,-27.637832)"
       mask="url(#mask3929)" />
    <path
       style="fill:#000000;fill-opacity:0.17254902;fill-rule:nonzero;stroke:#000000;stroke-width:1;stroke-linecap:round;stroke-linejoin:round;stroke-miterlimit:4;stroke-opacity:0.21960784;stroke-dasharray:none;stroke-dashoffset:0"
       d="m 849.5,277.86217 c -2.77,0 -5,2.23 -5,5 l 0,460 c 0,2.77 2.23,5 5,5 l 460,0 c 2.77,0 5,-2.23 5,-5 l 0,-460 c 0,-2.77 -2.23,-5 -5,-5 z m 54,12 c 0,-0.66667 2,-0.66667 2,0 l 0,47 48,0 0,-47 c 0,-0.66667 2,-0.66667 2,0 l 0,47 48,0 0,-47 c 0,-0.66667 2,-0.66667 2,0 l 0,47 48,0 0,-47 c 0,-0.66667 2,-0.66667 2,0 l 0,47 48,0 0,-47 c 0,-0.6667 2,-0.6667 2,0 l 0,47 48,0 0,-47 c 0,-0.6667 2,-0.6667 2,0 l 0,47 48,0 0,-47 c 0,-0.6667 2,-0.6667 2,0 l 0,47 48,0 0,-47 c 0,-0.6667 2,-0.6667 2,0 l 0,47 47,0 c 0.6667,0 0.6667,2 0,2 l -47,0 0,48 47,0 c 0.6667,0 0.6667,2 0,2 l -47,0 0,48 47,0 c 0.6667,0 0.6667,2 0,2 l -47,0 0,48 47,0 c 0.6667,0 0.6667,2 0,2 l -47,0 0,48 47,0 c 0.6667,0 0.6667,2 0,2 l -47,0 0,48 47,0 c 0.6667,0 0.6667,2 0,2 l -47,0 0,48 47,0 c 0.6667,0 0.6667,2 0,2 l -47,0 0,48 47,0 c 0.6667,0 0.6667,2 0,2 l -47,0 0,47 c 0,0.66667 -2,0.66667 -2,0 l 0,-47 -48,0 0,47 c 0,0.66667 -2,0.66667 -2,0 l 0,-47 -48,0 0,47 c 0,0.66667 -2,0.66667 -2,0 l 0,-47 -48,0 0,47 c 0,0.66667 -2,0.66667 -2,0 l 0,-47 -48,0 0,47 c 0,0.66667 -2,0.66667 -2,0 l 0,-47 -48,0 0,47 c 0,0.66667 -2,0.66667 -2,0 l 0,-47 -48,0 0,47 c 0,0.66667 -2,0.66667 -2,0 l 0,-47 -48,0 0,47 c 0,0.66667 -2,0.66667 -2,0 l 0,-47 -47,0 c -0.66667,0 -0.66667,-2 0,-2 l 47,0 0,-48 -47,0 c -0.66667,0 -0.66667,-2 0,-2 l 47,0 0,-48 -47,0 c -0.66667,0 -0.66667,-2 0,-2 l 47,0 0,-48 -47,0 c -0.66667,0 -0.66667,-2 0,-2 l 47,0 0,-48 -47,0 c -0.66667,0 -0.66667,-2 0,-2 l 47,0 0,-48 -47,0 c -0.66667,0 -0.66667,-2 0,-2 l 47,0 0,-48 -47,0 c -0.66667,0 -0.66667,-2 0,-2 l 47,0 0,-48 -47,0 c -0.66667,0 -0.66667,-2 0,-2 l 47,0 z m 2,49 0,48 48,0 0,-48 z m 50,0 0,48 48,0 0,-48 z m 50,0 0,48 48,0 0,-48 z m 50,0 0,48 48,0 0,-48 z m 50,0 0,48 48,0 0,-48 z m 50,0 0,48 48,0 0,-48 z m 50,0 0,48 48,0 0,-48 z m -300,50 0,48 48,0 0,-48 z m 50,0 0,48 48,0 0,-48 z m 50,0 0,48 48,0 0,-48 z m 50,0 0,48 48,0 0,-48 z m 50,0 0,48 48,0 0,-48 z m 50,0 0,48 48,0 0,-48 z m 50,0 0,48 48,0 0,-48 z m -300,50 0,48 48,0 0,-48 z m 50,0 0,48 48,0 0,-48 z m 50,0 0,48 48,0 0,-48 z m 50,0 0,48 48,0 0,-48 z m 50,0 0,48 48,0 0,-48 z m 50,0 0,48 48,0 0,-48 z m 50,0 0,48 48,0 0,-48 z m -300,50 0,48 48,0 0,-48 z m 50,0 0,48 48,0 0,-48 z m 50,0 0,48 48,0 0,-48 z m 50,0 0,48 48,0 0,-48 z m 50,0 0,48 48,0 0,-48 z m 50,0 0,48 48,0 0,-48 z m 50,0 0,48 48,0 0,-48 z m -300,50 0,48 48,0 0,-48 z m 50,0 0,48 48,0 0,-48 z m 50,0 0,48 48,0 0,-48 z m 50,0 0,48 48,0 0,-48 z m 50,0 0,48 48,0 0,-48 z m 50,0 0,48 48,0 0,-48 z m 50,0 0,48 48,0 0,-48 z m -300,50 0,48 48,0 0,-48 z m 50,0 0,48 48,0 0,-48 z m 50,0 0,48 48,0 0,-48 z m 50,0 0,48 48,0 0,-48 z m 50,0 0,48 48,0 0,-48 z m 50,0 0,48 48,0 0,-48 z m 50,0 0,48 48,0 0,-48 z m -300,50 0,48 48,0 0,-48 z m 50,0 0,48 48,0 0,-48 z m 50,0 0,48 48,0 0,-48 z m 50,0 0,48 48,0 0,-48 z m 50,0 0,48 48,0 0,-48 z m 50,0 0,48 48,0 0,-48 z m 50,0 0,48 48,0 0,-48 z"
       id="rect3602"
       inkscape:connector-curvature="0"
       sodipodi:nodetypes="sssssssssssccssccssccssccssccssccssccsscssccssccssccssccssccssccssccsscssccssccssccssccssccssccssccsscssccssccssccssccssccssccssccsscsccccccccccccccccccccccccccccccccccccccccccccccccccccccccccccccccccccccccccccccccccccccccccccccccccccccccccccccccccccccccccccccccccccccccccccccccccccccccccccccccccccccccccccccccccccccccccccccccccccccccccccccccccccccccccccccccccccccccccccccccccccc" />
    <path
       inkscape:connector-curvature="0"
       id="path6748"
       style="opacity:0.5;fill:#000000;fill-opacity:0.17254902;fill-rule:nonzero;stroke:#000000;stroke-width:1;stroke-linecap:square;stroke-linejoin:miter;stroke-miterlimit:4;stroke-opacity:0.18823529;stroke-dasharray:none;stroke-dashoffset:0"
       d="m 338,325.86217 363,0 c 3.047,0 5.5,2.453 5.5,5.5 l 0,363 c 0,3.047 -2.453,5.5 -5.5,5.5 l -363,0 c -3.047,0 -5.5,-2.453 -5.5,-5.5 l 0,-363 c 0,-3.047 2.453,-5.5 5.5,-5.5 z m -48.5,-48 c -2.77,0 -5,2.23 -5,5 l 0,460 c 0,2.77 2.23,5 5,5 l 460,0 c 2.77,0 5,-2.23 5,-5 l 0,-460 c 0,-2.77 -2.23,-5 -5,-5 l -460,0 z"
       inkscape:export-filename="/home/semyon/projects/lines-2012/concept/html/images/field-small.png"
       inkscape:export-xdpi="90"
       inkscape:export-ydpi="90" />
    <path
       inkscape:connector-curvature="0"
       id="path5532"
       style="fill:#000000;fill-opacity:0.17254902000000000;fill-rule:nonzero;stroke:#000000;stroke-width:1;stroke-linecap:round;stroke-linejoin:round;stroke-miterlimit:4;stroke-opacity:0.21960784;stroke-dasharray:none;stroke-dashoffset:0;color:#000000;marker:none;visibility:visible;display:inline;overflow:visible;enable-background:accumulate"
       d="m 595.5,588.86217 0,48 48,0 0,-48 z m -50,0 0,48 48,0 0,-48 z m -50,0 0,48 48,0 0,-48 z m -50,0 0,48 48,0 0,-48 z m -50,0 0,48 48,0 0,-48 z m 200,-50 0,48 48,0 0,-48 z m -50,0 0,48 48,0 0,-48 z m -50,0 0,48 48,0 0,-48 z m -50,0 0,48 48,0 0,-48 z m -50,0 0,48 48,0 0,-48 z m 200,-50 0,48 48,0 0,-48 z m -50,0 0,48 48,0 0,-48 z m -50,0 0,48 48,0 0,-48 z m -50,0 0,48 48,0 0,-48 z m -50,0 0,48 48,0 0,-48 z m 200,-50 0,48 48,0 0,-48 z m -50,0 0,48 48,0 0,-48 z m -50,0 0,48 48,0 0,-48 z m -50,0 0,48 48,0 0,-48 z m -50,0 0,48 48,0 0,-48 z m 200,-50 0,48 48,0 0,-48 z m -50,0 0,48 48,0 0,-48 z m -50,0 0,48 48,0 0,-48 z m -50,0 0,48 48,0 0,-48 z m -50,0 0,48 48,0 0,-48 z m -2,-49 c 0,-0.66667 2,-0.66667 2,0 l 0,47 48,0 0,-47 c 0,-0.66667 2,-0.66667 2,0 l 0,47 48,0 0,-47 c 0,-0.66667 2,-0.66667 2,0 l 0,47 48,0 0,-47 c 0,-0.66667 2,-0.66667 2,0 l 0,47 48,0 0,-47 c 0,-0.66667 2,-0.66667 2,0 l 0,47 48,0 0,-47 c 0,-0.66667 2,-0.66667 2,0 l 0,47 47,0 c 0.66667,0 0.66667,2 0,2 l -47,0 0,48 47,0 c 0.66667,0 0.66667,2 0,2 l -47,0 0,48 47,0 c 0.66667,0 0.66667,2 0,2 l -47,0 0,48 47,0 c 0.66667,0 0.66667,2 0,2 l -47,0 0,48 47,0 c 0.66667,0 0.66667,2 0,2 l -47,0 0,48 47,0 c 0.66667,0 0.66667,2 0,2 l -47,0 0,47 c 0,0.66667 -2,0.66667 -2,0 l 0,-47 -48,0 0,47 c 0,0.66667 -2,0.66667 -2,0 l 0,-47 -48,0 0,47 c 0,0.66667 -2,0.66667 -2,0 l 0,-47 -48,0 0,47 c 0,0.66667 -2,0.66667 -2,0 l 0,-47 -48,0 0,47 c 0,0.66667 -2,0.66667 -2,0 l 0,-47 -48,0 0,47 c 0,0.66667 -2,0.66667 -2,0 l 0,-47 -47,0 c -0.66667,0 -0.66667,-2 0,-2 l 47,0 0,-48 -47,0 c -0.66667,0 -0.66667,-2 0,-2 l 47,0 0,-48 -47,0 c -0.66667,0 -0.66667,-2 0,-2 l 47,0 0,-48 -47,0 c -0.66667,0 -0.66667,-2 0,-2 l 47,0 0,-48 -47,0 c -0.66667,0 -0.66667,-2 0,-2 l 47,0 0,-48 -47,0 c -0.66667,0 -0.66667,-2 0,-2 l 47,0 z m -55.5,-12 c -1.939,0 -3.5,1.561 -3.5,3.5 l 0,363 c 0,1.939 1.561,3.5 3.5,3.5 l 363,0 c 1.939,0 3.5,-1.561 3.5,-3.5 l 0,-363 c 0,-1.939 -1.561,-3.5 -3.5,-3.5 z"
       sodipodi:nodetypes="cccccccccccccccccccccccccccccccccccccccccccccccccccccccccccccccccccccccccccccccccccccccccccccccccccccccccccccccccccccccccccccssccssccssccssccssccsscssccssccssccssccssccsscssccssccssccssccssccsscssccssccssccssccssccsscssssssssss"
       inkscape:export-filename="/home/semyon/projects/lines-2012/concept/html/images/field-small.png"
       inkscape:export-xdpi="90"
       inkscape:export-ydpi="90" />
    <path
       id="path9774"
       style="fill:none;stroke:#ffffff;stroke-width:1px;stroke-linecap:butt;stroke-linejoin:miter;stroke-opacity:0.07843138"
       d="m 904.5,290.86217 0,46 m 0,352 0,46 m 0,-96 0,48 m 0,-98 0,48 m 0,-98 0,48 m 0,-98 0,48 m 0,-98 0,48 m 0,-98 0,48 m 0,-98 0,48 m 50,-96 0,46 m 0,352 0,46 m 0,-96 0,48 m 0,-98 0,48 m 0,-98 0,48 m 0,-98 0,48 m 0,-98 0,48 m 0,-98 0,48 m 0,-98 0,48 m 50,-96 0,46 m 0,352 0,46 m 0,-96 0,48 m 0,-98 0,48 m 0,-98 0,48 m 0,-98 0,48 m 0,-98 0,48 m 0,-98 0,48 m 0,-98 0,48 m 50,-96 0,46 m 0,352 0,46 m 0,-96 0,48 m 0,-98 0,48 m 0,-98 0,48 m 0,-98 0,48 m 0,-98 0,48 m 0,-98 0,48 m 0,-98 0,48 m 50,-96 0,46 m 0,352 0,46 m 0,-96 0,48 m 0,-98 0,48 m 0,-98 0,48 m 0,-98 0,48 m 0,-98 0,48 m 0,-98 0,48 m 0,-98 0,48 m 50,-96 0,46 m 0,352 0,46 m 0,-96 0,48 m 0,-98 0,48 m 0,-98 0,48 m 0,-98 0,48 m 0,-98 0,48 m 0,-98 0,48 m 0,-98 0,48 m 50,-96 0,46 m 0,352 0,46 m 0,-96 0,48 m 0,-98 0,48 m 0,-98 0,48 m 0,-98 0,48 m 0,-98 0,48 m 0,-98 0,48 m 0,-98 0,48 m 50,-96 0,46 m 0,352 0,46 m 0,-96 0,48 m 0,-98 0,48 m 0,-98 0,48 m 0,-98 0,48 m 0,-98 0,48 m 0,-98 0,48 m 0,-98 0,48 m -397,301 46,0 m 352,0 46,0 m -96,0 48,0 m -98,0 48,0 m -98,0 48,0 m -98,0 48,0 m -98,0 48,0 m -98,0 48,0 m -98,0 48,0 m -96,-50 46,0 m 352,0 46,0 m -96,0 48,0 m -98,0 48,0 m -98,0 48,0 m -98,0 48,0 m -98,0 48,0 m -98,0 48,0 m -98,0 48,0 m -96,-50 46,0 m 352,0 46,0 m -96,0 48,0 m -98,0 48,0 m -98,0 48,0 m -98,0 48,0 m -98,0 48,0 m -98,0 48,0 m -98,0 48,0 m -96,-50 46,0 m 352,0 46,0 m -96,0 48,0 m -98,0 48,0 m -98,0 48,0 m -98,0 48,0 m -98,0 48,0 m -98,0 48,0 m -98,0 48,0 m -96,-50 46,0 m 352,0 46,0 m -96,0 48,0 m -98,0 48,0 m -98,0 48,0 m -98,0 48,0 m -98,0 48,0 m -98,0 48,0 m -98,0 48,0 m -96,-50 46,0 m 352,0 46,0 m -96,0 48,0 m -98,0 48,0 m -98,0 48,0 m -98,0 48,0 m -98,0 48,0 m -98,0 48,0 m -98,0 48,0 m -96,-50 46,0 m 352,0 46,0 m -96,0 48,0 m -98,0 48,0 m -98,0 48,0 m -98,0 48,0 m -98,0 48,0 m -98,0 48,0 m -98,0 48,0 m -96,-50 46,0 m 352,0 46,0 m -96,0 48,0 m -98,0 48,0 m -98,0 48,0 m -98,0 48,0 m -98,0 48,0 m -98,0 48,0 m -98,0 48,0" />
    <path
       d="m 394.5,340.86217 0,46 m 0,252.00003 0,46 m 0,-96 0,48 m 0,-98 0,48 m 0,-98.00003 0,48.00003 m 0,-98.00003 0,48 m 0,-98 0,48 m 50,-96 0,46 m 0,252.00003 0,46 m 0,-96 0,48 m 0,-98 0,48 m 0,-98.00003 0,48.00003 m 0,-98.00003 0,48 m 0,-98 0,48 m 50,-96 0,46 m 0,252.00003 0,46 m 0,-96 0,48 m 0,-98 0,48 m 0,-98.00003 0,48.00003 m 0,-98.00003 0,48 m 0,-98 0,48 m 50,-96 0,46 m 0,252.00003 0,46 m 0,-96 0,48 m 0,-98 0,48 m 0,-98.00003 0,48.00003 m 0,-98.00003 0,48 m 0,-98 0,48 m 50,-96 0,46 m 0,252.00003 0,46 m 0,-96 0,48 m 0,-98 0,48 m 0,-98.00003 0,48.00003 m 0,-98.00003 0,48 m 0,-98 0,48 m 50,-96 0,46 m 0,252.00003 0,46 m 0,-96 0,48 m 0,-98 0,48 m 0,-98.00003 0,48.00003 m 0,-98.00003 0,48 m 0,-98 0,48 m -297,201.00003 46,0 m 252,0 46,0 m -96,0 48,0 m -98,0 48,0 m -98,0 48,0 m -98,0 48,0 m -98,0 48,0 m -96,-50 46,0 m 252,0 46,0 m -96,0 48,0 m -98,0 48,0 m -98,0 48,0 m -98,0 48,0 m -98,0 48,0 m -96,-50 46,0 m 252,0 46,0 m -96,0 48,0 m -98,0 48,0 m -98,0 48,0 m -98,0 48,0 m -98,0 48,0 m -96,-50.00003 46,0 m 252,0 46,0 m -96,0 48,0 m -98,0 48,0 m -98,0 48,0 m -98,0 48,0 m -98,0 48,0 m -96,-50 46,0 m 252,0 46,0 m -96,0 48,0 m -98,0 48,0 m -98,0 48,0 m -98,0 48,0 m -98,0 48,0 m -96,-50 46,0 m 252,0 46,0 m -96,0 48,0 m -98,0 48,0 m -98,0 48,0 m -98,0 48,0 m -98,0 48,0"
       style="fill:none;stroke:#ffffff;stroke-width:1px;stroke-linecap:butt;stroke-linejoin:miter;stroke-opacity:0.07843137"
       id="path9777"
       inkscape:connector-curvature="0"
       sodipodi:nodetypes="cccccccccccccccccccccccccccccccccccccccccccccccccccccccccccccccccccccccccccccccccccccccccccccccccccccccccccccccccccccccccccccccccccccccccccccccccccccccccccccccccccccccc"
       inkscape:export-filename="/home/semyon/projects/lines-2012/concept/html/images/field-small.png"
       inkscape:export-xdpi="90"
       inkscape:export-ydpi="90" />
    <path
       style="font-size:medium;font-style:normal;font-variant:normal;font-weight:normal;font-stretch:normal;text-indent:0;text-align:start;text-decoration:none;line-height:normal;letter-spacing:normal;word-spacing:normal;text-transform:none;direction:ltr;block-progression:tb;writing-mode:lr-tb;text-anchor:start;baseline-shift:baseline;color:#000000;fill:#000000;fill-opacity:0.08627451;stroke:none;stroke-width:60;marker:none;visibility:visible;display:inline;overflow:visible;enable-background:accumulate;font-family:Sans;-inkscape-font-specification:Sans;filter:url(#filter9911)"
       d="M 849.5 276 C 830.90592 276 815 291.90592 815 310.5 L 815 770.5 C 815 789.09408 830.90592 805 849.5 805 L 1309.5 805 C 1328.0941 805 1344 789.09408 1344 770.5 L 1344 310.5 C 1344 291.90592 1328.0941 276 1309.5 276 L 849.5 276 z M 849.5 306.5 L 1309.5 306.5 C 1311.7246 306.5 1313.5 308.27535 1313.5 310.5 L 1313.5 770.5 C 1313.5 772.72465 1311.7246 774.5 1309.5 774.5 L 849.5 774.5 C 847.27535 774.5 845.5 772.72465 845.5 770.5 L 845.5 310.5 C 845.5 308.27535 847.27535 306.5 849.5 306.5 z "
       transform="translate(0,-27.637832)"
       id="path9880"
       clip-path="url(#clipPath9915)" />
    <path
       style="font-size:medium;font-style:normal;font-variant:normal;font-weight:normal;font-stretch:normal;text-indent:0;text-align:start;text-decoration:none;line-height:normal;letter-spacing:normal;word-spacing:normal;text-transform:none;direction:ltr;block-progression:tb;writing-mode:lr-tb;text-anchor:start;baseline-shift:baseline;color:#000000;fill:#000000;fill-opacity:0.08627451;stroke:none;stroke-width:60;marker:none;visibility:visible;display:inline;overflow:visible;enable-background:accumulate;font-family:Sans;-inkscape-font-specification:Sans;filter:url(#filter9869)"
       d="M 338 326 C 320.23692 326 305 341.23692 305 359 L 305 722 C 305 739.76308 320.23692 755 338 755 L 701 755 C 718.76308 755 734 739.76308 734 722 L 734 359 C 734 341.23692 718.76308 326 701 326 L 338 326 z M 338 356.5 L 701 356.5 C 702.39365 356.5 703.5 357.60635 703.5 359 L 703.5 722 C 703.5 723.39365 702.39365 724.5 701 724.5 L 338 724.5 C 336.60635 724.5 335.5 723.39365 335.5 722 L 335.5 359 C 335.5 357.60635 336.60635 356.5 338 356.5 z "
       transform="translate(0,-27.637832)"
       id="path9856"
       clip-path="url(#clipPath9873)"
       inkscape:export-filename="/home/semyon/projects/lines-2012/concept/html/images/field-small.png"
       inkscape:export-xdpi="90"
       inkscape:export-ydpi="90" />
    <g
       id="g10010">
      <path
         style="fill:none;stroke:url(#linearGradient10008);stroke-width:1px;stroke-linecap:round;stroke-linejoin:miter;stroke-opacity:1;opacity:0.6"
         d="m 844.5,206.86217 470,0"
         id="path9933"
         inkscape:connector-curvature="0"
         sodipodi:nodetypes="cc" />
      <path
         sodipodi:nodetypes="cc"
         inkscape:connector-curvature="0"
         id="path9919"
         d="m 844.5,207.86217 470,0"
         style="fill:none;stroke:url(#linearGradient10005);stroke-width:1px;stroke-linecap:round;stroke-linejoin:miter;stroke-opacity:1" />
      <rect
         y="208.36217"
         x="844"
         height="69"
         width="471"
         id="rect9947"
         style="color:#000000;fill:url(#radialGradient10002);fill-opacity:1;stroke:none;stroke-width:0;marker:none;visibility:visible;display:inline;overflow:visible;enable-background:accumulate" />
    </g>
    <g
       id="g10015">
      <path
         sodipodi:nodetypes="cc"
         inkscape:connector-curvature="0"
         id="path9974"
         d="m 844.5,817.86217 470,0"
         style="fill:none;stroke:url(#linearGradient9993);stroke-width:1px;stroke-linecap:round;stroke-linejoin:miter;stroke-opacity:1" />
      <path
         style="fill:none;stroke:url(#linearGradient9990);stroke-width:1px;stroke-linecap:round;stroke-linejoin:miter;stroke-opacity:1"
         d="m 844.5,818.86217 470,0"
         id="path9976"
         inkscape:connector-curvature="0"
         sodipodi:nodetypes="cc" />
      <rect
         transform="scale(1,-1)"
         style="color:#000000;fill:url(#radialGradient9987);fill-opacity:1;stroke:none;stroke-width:0;marker:none;visibility:visible;display:inline;overflow:visible;enable-background:accumulate"
         id="rect9978"
         width="471"
         height="69"
         x="844"
         y="-817.36212" />
    </g>
    <g
       id="g10020"
       transform="translate(-560,0)">
      <path
         sodipodi:nodetypes="cc"
         inkscape:connector-curvature="0"
         id="path10022"
         d="m 844.5,206.86217 470,0"
         style="opacity:0.6;fill:none;stroke:url(#linearGradient10036);stroke-width:1px;stroke-linecap:round;stroke-linejoin:miter;stroke-opacity:1" />
      <path
         style="fill:none;stroke:url(#linearGradient10038);stroke-width:1px;stroke-linecap:round;stroke-linejoin:miter;stroke-opacity:1"
         d="m 844.5,207.86217 470,0"
         id="path10024"
         inkscape:connector-curvature="0"
         sodipodi:nodetypes="cc" />
      <rect
         style="color:#000000;fill:url(#radialGradient10040);fill-opacity:1;stroke:none;stroke-width:0;marker:none;visibility:visible;display:inline;overflow:visible;enable-background:accumulate"
         id="rect10026"
         width="471"
         height="69"
         x="844"
         y="208.36217" />
    </g>
    <g
       id="g10028"
       transform="translate(-560,0)">
      <path
         style="fill:none;stroke:url(#linearGradient10042);stroke-width:1px;stroke-linecap:round;stroke-linejoin:miter;stroke-opacity:1"
         d="m 844.5,817.86217 470,0"
         id="path10030"
         inkscape:connector-curvature="0"
         sodipodi:nodetypes="cc" />
      <path
         sodipodi:nodetypes="cc"
         inkscape:connector-curvature="0"
         id="path10032"
         d="m 844.5,818.86217 470,0"
         style="fill:none;stroke:url(#linearGradient10044);stroke-width:1px;stroke-linecap:round;stroke-linejoin:miter;stroke-opacity:1" />
      <rect
         y="-817.36212"
         x="844"
         height="69"
         width="471"
         id="rect10034"
         style="color:#000000;fill:url(#radialGradient10046);fill-opacity:1;stroke:none;stroke-width:0;marker:none;visibility:visible;display:inline;overflow:visible;enable-background:accumulate"
         transform="scale(1,-1)" />
    </g>
    <path
       clip-path="url(#clipPath9915)"
       id="path4816"
       transform="translate(-1520,-27.637832)"
       d="m 849.5,276 c -18.59408,0 -34.5,15.90592 -34.5,34.5 l 0,460 c 0,18.59408 15.90592,34.5 34.5,34.5 l 460,0 c 18.5941,0 34.5,-15.90592 34.5,-34.5 l 0,-460 c 0,-18.59408 -15.9059,-34.5 -34.5,-34.5 l -460,0 z m 0,30.5 460,0 c 2.2246,0 4,1.77535 4,4 l 0,460 c 0,2.22465 -1.7754,4 -4,4 l -460,0 c -2.22465,0 -4,-1.77535 -4,-4 l 0,-460 c 0,-2.22465 1.77535,-4 4,-4 z"
       style="font-size:medium;font-style:normal;font-variant:normal;font-weight:normal;font-stretch:normal;text-indent:0;text-align:start;text-decoration:none;line-height:normal;letter-spacing:normal;word-spacing:normal;text-transform:none;direction:ltr;block-progression:tb;writing-mode:lr-tb;text-anchor:start;baseline-shift:baseline;color:#000000;fill:#000000;fill-opacity:0.08627451;stroke:none;stroke-width:60;marker:none;visibility:visible;display:inline;overflow:visible;filter:url(#filter9911);enable-background:accumulate;font-family:Sans;-inkscape-font-specification:Sans"
       inkscape:connector-curvature="0" />
  </g>
</svg>
