<?xml version="1.0" encoding="UTF-8" standalone="no"?>
<!-- Created with Inkscape (http://www.inkscape.org/) -->

<svg
   xmlns:dc="http://purl.org/dc/elements/1.1/"
   xmlns:cc="http://creativecommons.org/ns#"
   xmlns:rdf="http://www.w3.org/1999/02/22-rdf-syntax-ns#"
   xmlns:svg="http://www.w3.org/2000/svg"
   xmlns="http://www.w3.org/2000/svg"
   xmlns:sodipodi="http://sodipodi.sourceforge.net/DTD/sodipodi-0.dtd"
   xmlns:inkscape="http://www.inkscape.org/namespaces/inkscape"
   width="48"
   height="460"
   id="svg2"
   version="1.1"
   inkscape:version="0.48.2 r9819"
   sodipodi:docname="icons.svg"
   inkscape:export-filename="/home/semyon/projects/lines-2012/concept/html/images/icons.png"
   inkscape:export-xdpi="90"
   inkscape:export-ydpi="90">
  <sodipodi:namedview
     id="base"
     pagecolor="#ffffff"
     bordercolor="#666666"
     borderopacity="1.0"
     inkscape:pageopacity="0.0"
     inkscape:pageshadow="2"
     inkscape:zoom="1.4142135"
     inkscape:cx="45.197284"
     inkscape:cy="232.63074"
     inkscape:document-units="px"
     inkscape:current-layer="layer1"
     showgrid="true"
     inkscape:window-width="1859"
     inkscape:window-height="1028"
     inkscape:window-x="59"
     inkscape:window-y="24"
     inkscape:window-maximized="0"
     inkscape:snap-nodes="false"
     inkscape:snap-bbox="true"
     inkscape:bbox-nodes="false"
     inkscape:snap-to-guides="false"
     inkscape:snap-grids="true"
     fit-margin-top="0"
     fit-margin-left="0"
     fit-margin-right="0"
     fit-margin-bottom="0">
    <inkscape:grid
       snapvisiblegridlinesonly="true"
       enabled="false"
       visible="true"
       empspacing="5"
       id="grid2816"
       type="xygrid" />
  </sodipodi:namedview>
  <defs
     id="defs4"><inkscape:path-effect
   fuse_tolerance="0"
   vertical_pattern="false"
   prop_units="false"
   tang_offset="0"
   normal_offset="0"
   spacing="0"
   scale_y_rel="false"
   prop_scale="1"
   copytype="single_stretched"
   pattern="M 0,0 1,0"
   is_visible="true"
   id="path-effect4326"
   effect="skeletal" />
<inkscape:perspective
   id="perspective10"
   inkscape:persp3d-origin="372.04724 : 350.78739 : 1"
   inkscape:vp_z="744.09448 : 526.18109 : 1"
   inkscape:vp_y="0 : 1000 : 0"
   inkscape:vp_x="0 : 526.18109 : 1"
   sodipodi:type="inkscape:persp3d" />
<pattern
   id="pattern3602"
   patternTransform="translate(48.9375,976.29968)"
   height="6.125"
   width="7.125"
   patternUnits="userSpaceOnUse">
  <path
     style="fill:#000000;fill-opacity:1;fill-rule:nonzero;stroke:#000000;stroke-width:0.1;stroke-linecap:square;stroke-linejoin:miter;stroke-miterlimit:4;stroke-opacity:1;stroke-dashoffset:0"
     d="m 2.0625,0.0625 c 1,0 2,0 3,0 0,1 2,6 2,6 l -7,0 c 0,0 2,-5 2,-6 z"
     id="rect3599"
     sodipodi:nodetypes="ccccc"
     inkscape:transform-center-y="-13" />
</pattern>
<inkscape:perspective
   id="perspective4507"
   inkscape:persp3d-origin="0.5 : 0.33333333 : 1"
   inkscape:vp_z="1 : 0.5 : 1"
   inkscape:vp_y="0 : 1000 : 0"
   inkscape:vp_x="0 : 0.5 : 1"
   sodipodi:type="inkscape:persp3d" />

	
	
<filter
   inkscape:collect="always"
   id="filter10254"
   x="-0.1078381"
   width="1.2156762"
   y="-0.0098195225"
   height="1.019639"
   color-interpolation-filters="sRGB">
  <feGaussianBlur
     inkscape:collect="always"
     stdDeviation="1.8286778"
     id="feGaussianBlur10256" />
</filter>
</defs>
  <metadata
     id="metadata7">
    <rdf:RDF>
      <cc:Work
         rdf:about="">
        <dc:format>image/svg+xml</dc:format>
        <dc:type
           rdf:resource="http://purl.org/dc/dcmitype/StillImage" />
        <dc:title></dc:title>
      </cc:Work>
    </rdf:RDF>
  </metadata>
  <g
     transform="translate(377.76511,-866.23932)"
     id="layer1"
     inkscape:groupmode="layer"
     inkscape:label="Layer 1">
    <g
       id="g9421"
       transform="translate(-40,0.999725)"
       style="opacity:0.5;filter:url(#filter10254)">
      <g
         id="g9100"
         transform="matrix(0.85,0,0,0.85,-352.0314,271.49694)"
         style="fill:#000000;stroke:#000000">
        <g
           inkscape:export-ydpi="90"
           inkscape:export-xdpi="90"
           inkscape:export-filename="/Users/klayman/Projects/lines/gears.png"
           id="g9102"
           style="fill:#000000;stroke:#000000">
          <path
             id="path9104"
             d="m 52.941942,980.39251 c -6.903559,0 -12.5,5.59644 -12.5,12.5 0,6.90356 5.596441,12.49999 12.5,12.49999 6.903559,0 12.5,-5.59643 12.5,-12.49999 0,-6.90356 -5.596441,-12.5 -12.5,-12.5 z m 0,4 c 4.69442,0 8.5,3.80558 8.5,8.5 0,4.69442 -3.80558,8.49999 -8.5,8.49999 -4.69442,0 -8.5,-3.80557 -8.5,-8.49999 0,-4.69442 3.80558,-8.5 8.5,-8.5 z"
             style="fill:#000000;fill-opacity:1;fill-rule:nonzero;stroke:#000000;stroke-width:1.17647064;stroke-opacity:1"
             inkscape:connector-curvature="0" />
          <path
             inkscape:transform-center-y="-13"
             sodipodi:nodetypes="ccccc"
             id="path9106"
             d="m 51.441942,976.89251 c 1,0 2,0 3,0 0,1 2,6 2,6 l -7,0 c 0,0 2,-5 2,-6 z"
             style="fill:#000000;fill-opacity:1;fill-rule:nonzero;stroke:#000000;stroke-width:0.11764706;stroke-linecap:square;stroke-linejoin:miter;stroke-miterlimit:4;stroke-opacity:1;stroke-dashoffset:0"
             inkscape:connector-curvature="0" />
          <path
             style="fill:#000000;fill-opacity:1;fill-rule:nonzero;stroke:#000000;stroke-width:0.11764706;stroke-linecap:square;stroke-linejoin:miter;stroke-miterlimit:4;stroke-opacity:1;stroke-dashoffset:0"
             d="m 41.508273,981.59998 c 0.766044,-0.64279 1.532089,-1.28558 2.298133,-1.92837 0.642789,0.76605 5.388816,3.3107 5.388816,3.3107 l -5.362311,4.49952 c 0,0 -1.68185,-5.1158 -2.324638,-5.88185 z"
             id="path9108"
             sodipodi:nodetypes="ccccc"
             inkscape:transform-center-y="-9.31579"
             inkscape:transform-center-x="7.5901945"
             inkscape:connector-curvature="0" />
          <path
             style="fill:#000000;fill-opacity:1;fill-rule:nonzero;stroke:#000000;stroke-width:0.11764706;stroke-linecap:square;stroke-linejoin:miter;stroke-miterlimit:4;stroke-opacity:1;stroke-dashoffset:0"
             d="m 36.924546,991.59135 c 0.173648,-0.98481 0.347296,-1.96961 0.520944,-2.95442 0.984808,0.17365 6.256143,-0.92773 6.256143,-0.92773 l -1.215537,6.89366 c 0,0 -4.576743,-2.83786 -5.56155,-3.01151 z"
             id="path9110"
             sodipodi:nodetypes="ccccc"
             inkscape:transform-center-y="-1.73648"
             inkscape:transform-center-x="12.628852"
             inkscape:connector-curvature="0" />
          <path
             inkscape:transform-center-x="10.75833"
             inkscape:transform-center-y="5.633965"
             sodipodi:nodetypes="ccccc"
             id="path9112"
             d="m 39.835535,1002.1915 c -0.500002,-0.866 -1.000005,-1.732 -1.500007,-2.59803 0.866031,-0.5 4.196161,-4.73205 4.196161,-4.73205 l 3.500007,6.06218 c 0,0 -5.33013,0.7679 -6.196161,1.2679 z"
             style="fill:#000000;fill-opacity:1;fill-rule:nonzero;stroke:#000000;stroke-width:0.11764706;stroke-linecap:square;stroke-linejoin:miter;stroke-miterlimit:4;stroke-opacity:1;stroke-dashoffset:0"
             inkscape:connector-curvature="0" />
          <path
             style="fill:#000000;fill-opacity:1;fill-rule:nonzero;stroke:#000000;stroke-width:0.11764706;stroke-linecap:square;stroke-linejoin:miter;stroke-miterlimit:4;stroke-opacity:1;stroke-dashoffset:0"
             d="m 48.879159,1008.4406 c -0.939693,-0.342 -1.879386,-0.684 -2.819078,-1.0261 0.34202,-0.9397 0.172735,-6.3222 0.172735,-6.3222 l 6.577849,2.3942 c 0,0 -3.589486,4.0144 -3.931506,4.9541 z"
             id="path9114"
             sodipodi:nodetypes="ccccc"
             inkscape:transform-center-y="11.87397"
             inkscape:transform-center-x="3.506569"
             inkscape:connector-curvature="0" />
          <path
             inkscape:transform-center-x="-3.5065695"
             inkscape:transform-center-y="11.87397"
             sodipodi:nodetypes="ccccc"
             id="path9116"
             d="m 59.823804,1007.4145 c -0.939693,0.3421 -1.879387,0.6841 -2.81908,1.0261 -0.34202,-0.9397 -3.931505,-4.9541 -3.931505,-4.9541 l 6.577851,-2.3942 c 0,0 -0.169285,5.3825 0.172734,6.3222 z"
             style="fill:#000000;fill-opacity:1;fill-rule:nonzero;stroke:#000000;stroke-width:0.11764706;stroke-linecap:square;stroke-linejoin:miter;stroke-miterlimit:4;stroke-opacity:1;stroke-dashoffset:0"
             inkscape:connector-curvature="0" />
          <path
             inkscape:transform-center-x="-10.75833"
             inkscape:transform-center-y="5.6339648"
             sodipodi:nodetypes="ccccc"
             id="path9118"
             d="m 67.548348,999.59347 c -0.500001,0.86603 -0.999998,1.73203 -1.499998,2.59803 -0.866026,-0.5 -6.196154,-1.2679 -6.196154,-1.2679 l 3.500001,-6.06218 c 0,0 3.330127,4.23205 4.196151,4.73205 z"
             style="fill:#000000;fill-opacity:1;fill-rule:nonzero;stroke:#000000;stroke-width:0.11764706;stroke-linecap:square;stroke-linejoin:miter;stroke-miterlimit:4;stroke-opacity:1;stroke-dashoffset:0"
             inkscape:connector-curvature="0" />
          <path
             style="fill:#000000;fill-opacity:1;fill-rule:nonzero;stroke:#000000;stroke-width:0.11764706;stroke-linecap:square;stroke-linejoin:miter;stroke-miterlimit:4;stroke-opacity:1;stroke-dashoffset:0"
             d="m 62.077481,979.67163 c 0.766041,0.64277 1.532087,1.28556 2.29814,1.92835 -0.642797,0.76604 -2.324645,5.88185 -2.324645,5.88185 l -5.362331,-4.49955 c 0,0 4.746045,-2.5446 5.388836,-3.31065 z"
             id="path9120"
             sodipodi:nodetypes="ccccc"
             inkscape:transform-center-y="-9.31578"
             inkscape:transform-center-x="-7.5901915"
             inkscape:connector-curvature="0" />
          <path
             inkscape:transform-center-x="-12.62886"
             inkscape:transform-center-y="-1.736495"
             sodipodi:nodetypes="ccccc"
             id="path9122"
             d="m 68.438389,988.63694 c 0.173656,0.98479 0.347304,1.9696 0.520958,2.95442 -0.984813,0.17364 -5.561562,3.0115 -5.561562,3.0115 l -1.215529,-6.89369 c 0,0 5.271319,1.10142 6.256133,0.92777 z"
             style="fill:#000000;fill-opacity:1;fill-rule:nonzero;stroke:#000000;stroke-width:0.11764706;stroke-linecap:square;stroke-linejoin:miter;stroke-miterlimit:4;stroke-opacity:1;stroke-dashoffset:0"
             inkscape:connector-curvature="0" />
        </g>
        <g
           inkscape:export-ydpi="90"
           inkscape:export-xdpi="90"
           inkscape:export-filename="/Users/klayman/Projects/lines/gears.png"
           style="fill:#000000;fill-opacity:1;stroke:#000000;stroke-width:1.17647064;stroke-opacity:1"
           transform="matrix(0.93172884,-0.36315475,0.36315475,0.93172884,-362.14843,80.85529)"
           id="g9124">
          <path
             style="fill:#000000;fill-opacity:1;fill-rule:nonzero;stroke:#000000;stroke-width:1.19658303;stroke-opacity:1"
             d="m 30.910715,996.6921 c -4.413558,0 -7.991453,3.5779 -7.991453,7.9915 0,4.4136 3.577895,7.9914 7.991453,7.9914 4.413557,0 7.991451,-3.5778 7.991451,-7.9914 0,-4.4136 -3.577894,-7.9915 -7.991451,-7.9915 z m 0,2.55729 c 3.001218,0 5.434186,2.43301 5.434186,5.43421 0,3.0012 -2.432968,5.4342 -5.434186,5.4342 -3.00122,0 -5.434188,-2.433 -5.434188,-5.4342 0,-3.0012 2.432968,-5.43421 5.434188,-5.43421 z"
             id="path9126"
             inkscape:connector-curvature="0" />
          <path
             style="fill:#000000;fill-opacity:1;fill-rule:nonzero;stroke:#000000;stroke-width:0.11764706;stroke-linecap:square;stroke-linejoin:miter;stroke-miterlimit:4;stroke-opacity:1;stroke-dashoffset:0"
             d="m 20.895239,1009.9712 c -0.345202,-0.9386 -0.690405,-1.8771 -1.035608,-2.8156 0.938529,-0.3452 4.940735,-3.9482 4.940735,-3.9482 l 2.416449,6.5696 c 0,0 -5.383046,-0.151 -6.321576,0.1942 z"
             id="path9128"
             sodipodi:nodetypes="ccccc"
             inkscape:transform-center-y="1.9001898"
             inkscape:transform-center-x="7.372491"
             inkscape:connector-curvature="0" />
          <path
             inkscape:transform-center-x="-0.200003"
             inkscape:transform-center-y="8.1788398"
             sodipodi:nodetypes="ccccc"
             id="path9130"
             d="m 32.839308,1015.8466 c -0.999267,0.038 -1.998534,0.077 -2.997802,0.1149 -0.03829,-0.9993 -2.228221,-5.919 -2.228221,-5.919 l 6.994864,-0.2681 c 0,0 -1.807128,5.073 -1.768841,6.0722 z"
             style="fill:#000000;fill-opacity:1;fill-rule:nonzero;stroke:#000000;stroke-width:0.11764706;stroke-linecap:square;stroke-linejoin:miter;stroke-miterlimit:4;stroke-opacity:1;stroke-dashoffset:0"
             inkscape:connector-curvature="0" />
          <path
             inkscape:transform-center-x="-7.639936"
             inkscape:transform-center-y="1.4226398"
             sodipodi:nodetypes="ccccc"
             id="path9132"
             d="m 42.118138,1006.3028 c -0.272421,0.9622 -0.544782,1.9244 -0.817144,2.8865 -0.962189,-0.2723 -6.317832,0.2901 -6.317832,0.2901 l 1.906566,-6.7353 c 0,0 4.26622,3.2863 5.22841,3.5587 z"
             style="fill:#000000;fill-opacity:1;fill-rule:nonzero;stroke:#000000;stroke-width:0.11764706;stroke-linecap:square;stroke-linejoin:miter;stroke-miterlimit:4;stroke-opacity:1;stroke-dashoffset:0"
             inkscape:connector-curvature="0" />
          <path
             style="fill:#000000;fill-opacity:1;fill-rule:nonzero;stroke:#000000;stroke-width:0.11764706;stroke-linecap:square;stroke-linejoin:miter;stroke-miterlimit:4;stroke-opacity:1;stroke-dashoffset:0"
             d="m 22.792239,996.79611 c 0.786086,-0.6181 1.571593,-1.237 2.357738,-1.85502 0.618354,0.78595 5.281763,3.47885 5.281763,3.47885 l -5.501369,4.32836 c 0,0 -1.519837,-5.16632 -2.138132,-5.95219 z"
             id="path9134"
             sodipodi:nodetypes="ccccc"
             inkscape:transform-center-y="-5.8444152"
             inkscape:transform-center-x="4.2987245"
             inkscape:connector-curvature="0" />
          <path
             inkscape:transform-center-x="-3.7442725"
             inkscape:transform-center-y="-6.2765052"
             sodipodi:nodetypes="ccccc"
             id="path9136"
             d="m 35.908657,994.52891 c 0.830761,0.55661 1.662105,1.11242 2.492809,1.66911 -0.5564,0.83096 -1.676428,6.09828 -1.676428,6.09828 l -5.816531,-3.89458 c 0,0 4.443806,-3.04193 5.00015,-3.87281 z"
             style="fill:#000000;fill-opacity:1;fill-rule:nonzero;stroke:#000000;stroke-width:0.11764706;stroke-linecap:square;stroke-linejoin:miter;stroke-miterlimit:4;stroke-opacity:1;stroke-dashoffset:0"
             inkscape:connector-curvature="0" />
        </g>
      </g>
      <g
         id="g9138"
         transform="matrix(1.4971148,0,0,1.4971148,-452.72774,-495.442)"
         style="fill:#000000">
        <g
           inkscape:transform-center-y="-2.8284272"
           inkscape:transform-center-x="2.3864855"
           id="g9140"
           style="fill:#000000">
          <path
             style="fill:#000000;fill-opacity:1;stroke:none"
             d="m 99.631968,979.63124 c -6.558915,-6.34948 -16.323684,-2.14001 -15.848012,5.60744 0.497704,0.33499 1.172349,0.27996 2.027973,0.33499 1.267858,-4.6007 6.094862,-8.92341 12.573406,-4.31732 0.397624,-0.51422 0.950577,-1.13445 1.246633,-1.62511 z"
             id="path9142"
             sodipodi:nodetypes="ccccc"
             inkscape:connector-curvature="0" />
          <path
             style="fill:#000000;fill-opacity:1;stroke:none"
             d="m 81.235666,982.39898 3.547686,7.43845 4.705144,-6.56846 c -2.157257,0.44151 -6.064742,0.64777 -8.25283,-0.86999 z"
             id="path9144"
             sodipodi:nodetypes="cccc"
             inkscape:connector-curvature="0" />
        </g>
        <g
           transform="matrix(-1,0,0,-1,185.6406,1972.0349)"
           id="g9146"
           inkscape:transform-center-x="-2.3864805"
           inkscape:transform-center-y="2.8284138"
           style="fill:#000000">
          <path
             sodipodi:nodetypes="ccccc"
             id="path9148"
             d="m 99.631968,979.63124 c -6.558915,-6.34948 -16.323684,-2.14001 -15.848012,5.60744 0.497704,0.33499 1.172349,0.27996 2.027973,0.33499 1.267858,-4.6007 6.094862,-8.92341 12.573406,-4.31732 0.397624,-0.51422 0.950577,-1.13445 1.246633,-1.62511 z"
             style="fill:#000000;fill-opacity:1;stroke:none"
             inkscape:connector-curvature="0" />
          <path
             sodipodi:nodetypes="cccc"
             id="path9150"
             d="m 81.235666,982.39898 3.547686,7.43845 4.705144,-6.56846 c -2.157257,0.44151 -6.064742,0.64777 -8.25283,-0.86999 z"
             style="fill:#000000;fill-opacity:1;stroke:none"
             inkscape:connector-curvature="0" />
        </g>
      </g>
      <path
         d="m -314.71875,1080.8125 c -1.08844,0 -2.07737,0.3274 -2.875,1 -0.7976,0.6726 -1.25,1.596 -1.25,2.5937 0,0.9978 0.45584,1.9402 1.25,2.625 0.79763,0.6727 1.78656,1 2.875,1 1.08842,0 2.10861,-0.3273 2.90625,-1 0.79415,-0.6848 1.24999,-1.6272 1.25,-2.625 -10e-6,-0.9977 -0.45241,-1.9211 -1.25,-2.5937 -0.79764,-0.6726 -1.81783,-1 -2.90625,-1 z m 0.40625,-23.375 c -3.13644,0 -5.58986,0.525 -7.3125,1.7187 l -0.53125,0.4063 0.34375,0.5625 1.65625,2.75 0.4375,0.7188 0.625,-0.5313 c 1.03939,-0.8419 2.2108,-1.25 3.625,-1.25 1.54337,0 2.61948,0.2794 3.25,0.7187 0.63052,0.4394 0.9375,1.006 0.9375,1.9688 -10e-6,0.5127 -0.19489,1.084 -0.625,1.7188 -0.42295,0.6241 -1.36275,1.6326 -2.78125,2.9687 -1.45698,1.3739 -2.42488,2.5911 -2.90625,3.7187 -0.42738,1.0397 -0.65625,2.0654 -0.65625,3.0938 0,0.7684 0.30993,1.6797 0.84375,2.9375 l 0.15625,0.4375 0.5,0 3,0 0.90625,0 -0.21875,-0.875 c -0.2101,-0.8857 -0.28125,-1.5107 -0.28125,-1.5938 -10e-6,-1.5267 0.56279,-2.8817 1.78125,-4.1562 l 0.0312,-0.031 3.3125,-2.9688 c 0.87133,-0.7763 1.50963,-1.6413 1.9375,-2.5938 0.43737,-0.9504 0.65622,-1.9402 0.65625,-2.9687 -3e-5,-2.0262 -0.88339,-3.7651 -2.5625,-4.9687 -1.64968,-1.1944 -3.72162,-1.7813 -6.125,-1.7813 z"
         style="font-size:43.06941986px;font-style:normal;font-variant:normal;font-weight:normal;font-stretch:normal;text-indent:0;text-align:start;text-decoration:none;line-height:normal;letter-spacing:normal;word-spacing:normal;text-transform:none;direction:ltr;block-progression:tb;writing-mode:lr-tb;text-anchor:start;baseline-shift:baseline;color:#000000;fill:#000000;fill-opacity:1;fill-rule:nonzero;stroke:none;stroke-width:1.42243516;marker:none;visibility:visible;display:inline;overflow:visible;enable-background:accumulate;font-family:Trebuchet MS;-inkscape-font-specification:Trebuchet MS"
         id="path9274"
         inkscape:connector-curvature="0" />
      <path
         inkscape:connector-curvature="0"
         id="path9156"
         d="m -313.76511,1011.1385 c -0.93391,0 -1.52138,0.4268 -1.95009,0.7719 -0.42871,0.3452 -0.75481,0.7077 -1.0563,1.097 -0.60297,0.7786 -1.15142,1.6672 -1.6657,2.5595 -0.51428,0.8922 -0.9749,1.7642 -1.38131,2.4376 -0.40641,0.6734 -0.98248,1.2055 -0.60941,0.9344 0.37307,-0.271 -0.24964,0.065 -1.01567,0.2438 -0.76603,0.1784 -1.79573,0.396 -2.80326,0.6094 -1.00752,0.2133 -1.99827,0.439 -2.92513,0.7719 -0.46344,0.1664 -0.92062,0.3489 -1.38132,0.65 -0.46069,0.3011 -1.01146,0.7369 -1.30006,1.6251 -0.28859,0.8882 -0.11448,1.5982 0.0813,2.1126 0.19574,0.5144 0.45418,0.9336 0.73128,1.3407 0.55421,0.814 1.26041,1.5915 1.95009,2.3563 0.68968,0.7649 1.35398,1.4774 1.86884,2.072 0.51486,0.5946 0.83316,1.2917 0.69066,0.8532 -0.1425,-0.4386 0.0264,0.3132 -0.0406,1.0969 -0.067,0.7837 -0.21661,1.7791 -0.32502,2.8032 -0.1084,1.0242 -0.19264,2.0627 -0.1625,3.0471 0.0151,0.4921 0.0591,0.972 0.20313,1.5032 0.14399,0.5311 0.382,1.198 1.13755,1.7469 0.75556,0.549 1.48166,0.596 2.03135,0.5688 0.54968,-0.027 1.03045,-0.1466 1.50319,-0.2844 0.94549,-0.2755 1.90336,-0.6773 2.84389,-1.0969 0.94052,-0.4196 1.83488,-0.8723 2.55949,-1.1782 0.72461,-0.3059 1.47681,-0.4063 1.01567,-0.4063 -0.46113,0 0.29107,0.1004 1.01567,0.4063 0.72461,0.3059 1.61898,0.7586 2.5595,1.1782 0.94052,0.4196 1.89839,0.8214 2.84388,1.0969 0.47275,0.1378 0.95351,0.2572 1.5032,0.2844 0.54968,0.027 1.27579,-0.02 2.03134,-0.5688 0.75555,-0.5489 0.99357,-1.2158 1.13755,-1.7469 0.14399,-0.5312 0.18807,-1.0111 0.20314,-1.5032 0.0301,-0.9844 -0.0541,-2.0229 -0.16251,-3.0471 -0.10841,-1.0241 -0.25799,-2.0195 -0.32501,-2.8032 -0.067,-0.7837 0.10187,-1.5355 -0.0406,-1.0969 -0.1425,0.4385 0.1758,-0.2586 0.69066,-0.8532 0.51485,-0.5946 1.17915,-1.3071 1.86883,-2.072 0.68968,-0.7648 1.39588,-1.5423 1.95009,-2.3563 0.27711,-0.4071 0.53555,-0.8263 0.73129,-1.3407 0.19574,-0.5144 0.36985,-1.2244 0.0813,-2.1126 -0.28859,-0.8882 -0.83936,-1.324 -1.30006,-1.6251 -0.4607,-0.3011 -0.91788,-0.4836 -1.38131,-0.65 -0.92687,-0.3329 -1.91762,-0.5586 -2.92514,-0.7719 -1.00752,-0.2134 -2.03722,-0.431 -2.80326,-0.6094 -0.76603,-0.1785 -1.38874,-0.5148 -1.01567,-0.2438 0.37307,0.2711 -0.20299,-0.261 -0.6094,-0.9344 -0.40641,-0.6734 -0.86704,-1.5454 -1.38132,-2.4376 -0.51427,-0.8923 -1.06273,-1.7809 -1.6657,-2.5595 -0.30148,-0.3893 -0.62758,-0.7518 -1.0563,-1.097 -0.42871,-0.3451 -1.01617,-0.7719 -1.95009,-0.7719 z m 0,5.0378 c 0.30306,0.4479 0.62469,0.8953 0.97505,1.5032 0.48257,0.8372 0.9422,1.7645 1.42194,2.5595 0.47974,0.7949 0.74566,1.4257 1.74696,2.1532 1.00129,0.7275 1.69586,0.7644 2.60012,0.975 0.90425,0.2107 1.89847,0.4092 2.84388,0.6094 0.67423,0.1428 1.19107,0.2996 1.70633,0.4469 -0.331,0.4237 -0.67314,0.8257 -1.13755,1.3407 -0.64717,0.7177 -1.34234,1.492 -1.9501,2.1939 -0.60775,0.7019 -1.12073,1.1386 -1.50319,2.3157 -0.38246,1.1771 -0.201,1.8375 -0.12188,2.7626 0.0791,0.9251 0.18266,1.9235 0.28439,2.8845 0.0734,0.6933 0.10342,1.2488 0.12188,1.7876 -0.50628,-0.184 -1.02998,-0.3664 -1.6657,-0.65 -0.88254,-0.3937 -1.7854,-0.8577 -2.64075,-1.2188 -0.85536,-0.3611 -1.44371,-0.7313 -2.68138,-0.7313 -1.23766,0 -1.82602,0.3702 -2.68137,0.7313 -0.85536,0.3611 -1.75821,0.8251 -2.64075,1.2188 -0.63572,0.2836 -1.15942,0.466 -1.6657,0.65 0.0185,-0.5388 0.0485,-1.0943 0.12188,-1.7876 0.10172,-0.961 0.20527,-1.9594 0.28439,-2.8845 0.0791,-0.9251 0.26058,-1.5855 -0.12188,-2.7626 -0.38246,-1.1771 -0.89544,-1.6138 -1.5032,-2.3157 -0.60776,-0.7019 -1.30293,-1.4762 -1.95009,-2.1939 -0.46442,-0.515 -0.80656,-0.917 -1.13755,-1.3407 0.51526,-0.1473 1.03209,-0.3041 1.70633,-0.4469 0.9454,-0.2002 1.93962,-0.3987 2.84388,-0.6094 0.90425,-0.2106 1.59883,-0.2475 2.60012,-0.975 1.00129,-0.7275 1.26721,-1.3583 1.74696,-2.1532 0.47974,-0.795 0.93937,-1.7223 1.42194,-2.5595 0.35035,-0.6079 0.67198,-1.0553 0.97504,-1.5032 z"
         style="font-size:medium;font-style:normal;font-variant:normal;font-weight:normal;font-stretch:normal;text-indent:0;text-align:start;text-decoration:none;line-height:normal;letter-spacing:normal;word-spacing:normal;text-transform:none;direction:ltr;block-progression:tb;writing-mode:lr-tb;text-anchor:start;baseline-shift:baseline;color:#000000;fill:#000000;fill-opacity:1;fill-rule:nonzero;stroke:none;stroke-width:3.28239012;marker:none;visibility:visible;display:inline;overflow:visible;enable-background:accumulate;font-family:Sans;-inkscape-font-specification:Sans" />
      <g
         id="g9158"
         transform="matrix(0.85,0,0,0.85,-608.45451,316.57847)"
         style="fill:#000000">
        <path
           transform="matrix(1.6884987,0,0,1.6884987,-225.50659,930.86776)"
           d="m 335.52218,32.944027 c 0,1.85499 -1.50377,3.358757 -3.35876,3.358757 -1.85499,0 -3.35876,-1.503767 -3.35876,-3.358757 0,-1.85499 1.50377,-3.358757 3.35876,-3.358757 1.85499,0 3.35876,1.503767 3.35876,3.358757 z"
           sodipodi:ry="3.3587573"
           sodipodi:rx="3.3587573"
           sodipodi:cy="32.944027"
           sodipodi:cx="332.16342"
           id="path9160"
           style="fill:#000000;fill-opacity:1;stroke:none"
           sodipodi:type="arc" />
        <path
           sodipodi:type="arc"
           style="fill:#000000;fill-opacity:1;stroke:none"
           id="path9162"
           sodipodi:cx="332.16342"
           sodipodi:cy="32.944027"
           sodipodi:rx="3.3587573"
           sodipodi:ry="3.3587573"
           d="m 335.52218,32.944027 c 0,1.85499 -1.50377,3.358757 -3.35876,3.358757 -1.85499,0 -3.35876,-1.503767 -3.35876,-3.358757 0,-1.85499 1.50377,-3.358757 3.35876,-3.358757 1.85499,0 3.35876,1.503767 3.35876,3.358757 z"
           transform="matrix(1.6884987,0,0,1.6884987,-214.16408,942.21027)" />
        <path
           sodipodi:type="arc"
           style="fill:#000000;fill-opacity:1;stroke:none"
           id="path9164"
           sodipodi:cx="332.16342"
           sodipodi:cy="32.944027"
           sodipodi:rx="3.3587573"
           sodipodi:ry="3.3587573"
           d="m 335.52218,32.944027 c 0,1.85499 -1.50377,3.358757 -3.35876,3.358757 -1.85499,0 -3.35876,-1.503767 -3.35876,-3.358757 0,-1.85499 1.50377,-3.358757 3.35876,-3.358757 1.85499,0 3.35876,1.503767 3.35876,3.358757 z"
           transform="matrix(1.6884987,0,0,1.6884987,-202.82157,953.55278)" />
      </g>
      <g
         id="g9166"
         transform="matrix(0.82728074,0,0,0.82728074,-649.53483,386.25086)"
         style="fill:#000000">
        <path
           sodipodi:type="arc"
           style="fill:#000000;fill-opacity:1;stroke:none"
           id="path9168"
           sodipodi:cx="332.16342"
           sodipodi:cy="32.944027"
           sodipodi:rx="3.3587573"
           sodipodi:ry="3.3587573"
           d="m 335.52218,32.944027 c 0,1.85499 -1.50377,3.358757 -3.35876,3.358757 -1.85499,0 -3.35876,-1.503767 -3.35876,-3.358757 0,-1.85499 1.50377,-3.358757 3.35876,-3.358757 1.85499,0 3.35876,1.503767 3.35876,3.358757 z"
           transform="matrix(2.261971,0,0,2.261971,-354.4095,913.16919)" />
        <path
           transform="matrix(2.261971,0,0,2.261971,-336.53542,931.04328)"
           d="m 335.52218,32.944027 c 0,1.85499 -1.50377,3.358757 -3.35876,3.358757 -1.85499,0 -3.35876,-1.503767 -3.35876,-3.358757 0,-1.85499 1.50377,-3.358757 3.35876,-3.358757 1.85499,0 3.35876,1.503767 3.35876,3.358757 z"
           sodipodi:ry="3.3587573"
           sodipodi:rx="3.3587573"
           sodipodi:cy="32.944027"
           sodipodi:cx="332.16342"
           id="path9170"
           style="fill:#000000;fill-opacity:1;stroke:none"
           sodipodi:type="arc" />
        <path
           transform="matrix(2.261971,0,0,2.261971,-354.4095,931.04328)"
           d="m 335.52218,32.944027 c 0,1.85499 -1.50377,3.358757 -3.35876,3.358757 -1.85499,0 -3.35876,-1.503767 -3.35876,-3.358757 0,-1.85499 1.50377,-3.358757 3.35876,-3.358757 1.85499,0 3.35876,1.503767 3.35876,3.358757 z"
           sodipodi:ry="3.3587573"
           sodipodi:rx="3.3587573"
           sodipodi:cy="32.944027"
           sodipodi:cx="332.16342"
           id="path9172"
           style="fill:#000000;fill-opacity:1;stroke:none"
           sodipodi:type="arc" />
        <path
           sodipodi:type="arc"
           style="fill:#000000;fill-opacity:1;stroke:none"
           id="path9174"
           sodipodi:cx="332.16342"
           sodipodi:cy="32.944027"
           sodipodi:rx="3.3587573"
           sodipodi:ry="3.3587573"
           d="m 335.52218,32.944027 c 0,1.85499 -1.50377,3.358757 -3.35876,3.358757 -1.85499,0 -3.35876,-1.503767 -3.35876,-3.358757 0,-1.85499 1.50377,-3.358757 3.35876,-3.358757 1.85499,0 3.35876,1.503767 3.35876,3.358757 z"
           transform="matrix(2.261971,0,0,2.261971,-336.53542,913.16919)" />
      </g>
      <g
         id="g9176"
         transform="matrix(0.85,0,0,0.85,-708.75452,409.00347)"
         style="fill:#000000">
        <path
           sodipodi:type="arc"
           style="fill:#000000;fill-opacity:1;stroke:none"
           id="path9178"
           sodipodi:cx="332.16342"
           sodipodi:cy="32.944027"
           sodipodi:rx="3.3587573"
           sodipodi:ry="3.3587573"
           d="m 335.52218,32.944027 c 0,1.85499 -1.50377,3.358757 -3.35876,3.358757 -1.85499,0 -3.35876,-1.503767 -3.35876,-3.358757 0,-1.85499 1.50377,-3.358757 3.35876,-3.358757 1.85499,0 3.35876,1.503767 3.35876,3.358757 z"
           transform="matrix(1.6884987,0,0,1.6884987,-107.50658,941.71027)" />
        <path
           transform="matrix(1.6884987,0,0,1.6884987,-96.16407,930.36776)"
           d="m 335.52218,32.944027 c 0,1.85499 -1.50377,3.358757 -3.35876,3.358757 -1.85499,0 -3.35876,-1.503767 -3.35876,-3.358757 0,-1.85499 1.50377,-3.358757 3.35876,-3.358757 1.85499,0 3.35876,1.503767 3.35876,3.358757 z"
           sodipodi:ry="3.3587573"
           sodipodi:rx="3.3587573"
           sodipodi:cy="32.944027"
           sodipodi:cx="332.16342"
           id="path9180"
           style="fill:#000000;fill-opacity:1;stroke:none"
           sodipodi:type="arc" />
        <path
           transform="matrix(1.6884987,0,0,1.6884987,-84.82156,941.71027)"
           d="m 335.52218,32.944027 c 0,1.85499 -1.50377,3.358757 -3.35876,3.358757 -1.85499,0 -3.35876,-1.503767 -3.35876,-3.358757 0,-1.85499 1.50377,-3.358757 3.35876,-3.358757 1.85499,0 3.35876,1.503767 3.35876,3.358757 z"
           sodipodi:ry="3.3587573"
           sodipodi:rx="3.3587573"
           sodipodi:cy="32.944027"
           sodipodi:cx="332.16342"
           id="path9182"
           style="fill:#000000;fill-opacity:1;stroke:none"
           sodipodi:type="arc" />
        <path
           sodipodi:type="arc"
           style="fill:#000000;fill-opacity:1;stroke:none"
           id="path9184"
           sodipodi:cx="332.16342"
           sodipodi:cy="32.944027"
           sodipodi:rx="3.3587573"
           sodipodi:ry="3.3587573"
           d="m 335.52218,32.944027 c 0,1.85499 -1.50377,3.358757 -3.35876,3.358757 -1.85499,0 -3.35876,-1.503767 -3.35876,-3.358757 0,-1.85499 1.50377,-3.358757 3.35876,-3.358757 1.85499,0 3.35876,1.503767 3.35876,3.358757 z"
           transform="matrix(1.6884987,0,0,1.6884987,-96.16407,953.05278)" />
      </g>
      <g
         id="g9186"
         transform="matrix(0.77176728,0,0,0.77176728,-718.70633,533.0278)"
         style="fill:#000000">
        <path
           sodipodi:type="arc"
           style="fill:#000000;fill-opacity:1;stroke:none"
           id="path9188"
           sodipodi:cx="332.16342"
           sodipodi:cy="32.944027"
           sodipodi:rx="3.3587573"
           sodipodi:ry="3.3587573"
           d="m 335.52218,32.944027 c 0,1.85499 -1.50377,3.358757 -3.35876,3.358757 -1.85499,0 -3.35876,-1.503767 -3.35876,-3.358757 0,-1.85499 1.50377,-3.358757 3.35876,-3.358757 1.85499,0 3.35876,1.503767 3.35876,3.358757 z"
           transform="matrix(-1.6884987,0,0,1.6884987,1098.8935,928.36776)" />
        <path
           transform="matrix(-1.6884987,0,0,1.6884987,1085.5509,941.71027)"
           d="m 335.52218,32.944027 c 0,1.85499 -1.50377,3.358757 -3.35876,3.358757 -1.85499,0 -3.35876,-1.503767 -3.35876,-3.358757 0,-1.85499 1.50377,-3.358757 3.35876,-3.358757 1.85499,0 3.35876,1.503767 3.35876,3.358757 z"
           sodipodi:ry="3.3587573"
           sodipodi:rx="3.3587573"
           sodipodi:cy="32.944027"
           sodipodi:cx="332.16342"
           id="path9190"
           style="fill:#000000;fill-opacity:1;stroke:none"
           sodipodi:type="arc" />
        <path
           transform="matrix(-1.6884987,0,0,1.6884987,1072.2084,955.05278)"
           d="m 335.52218,32.944027 c 0,1.85499 -1.50377,3.358757 -3.35876,3.358757 -1.85499,0 -3.35876,-1.503767 -3.35876,-3.358757 0,-1.85499 1.50377,-3.358757 3.35876,-3.358757 1.85499,0 3.35876,1.503767 3.35876,3.358757 z"
           sodipodi:ry="3.3587573"
           sodipodi:rx="3.3587573"
           sodipodi:cy="32.944027"
           sodipodi:cx="332.16342"
           id="path9192"
           style="fill:#000000;fill-opacity:1;stroke:none"
           sodipodi:type="arc" />
        <path
           sodipodi:type="arc"
           style="fill:#000000;fill-opacity:1;stroke:none"
           id="path9194"
           sodipodi:cx="332.16342"
           sodipodi:cy="32.944027"
           sodipodi:rx="3.3587573"
           sodipodi:ry="3.3587573"
           d="m 335.52218,32.944027 c 0,1.85499 -1.50377,3.358757 -3.35876,3.358757 -1.85499,0 -3.35876,-1.503767 -3.35876,-3.358757 0,-1.85499 1.50377,-3.358757 3.35876,-3.358757 1.85499,0 3.35876,1.503767 3.35876,3.358757 z"
           transform="matrix(-1.6884987,0,0,1.6884987,1072.2084,928.36776)" />
        <path
           transform="matrix(-1.6884987,0,0,1.6884987,1085.5509,928.36776)"
           d="m 335.52218,32.944027 c 0,1.85499 -1.50377,3.358757 -3.35876,3.358757 -1.85499,0 -3.35876,-1.503767 -3.35876,-3.358757 0,-1.85499 1.50377,-3.358757 3.35876,-3.358757 1.85499,0 3.35876,1.503767 3.35876,3.358757 z"
           sodipodi:ry="3.3587573"
           sodipodi:rx="3.3587573"
           sodipodi:cy="32.944027"
           sodipodi:cx="332.16342"
           id="path9196"
           style="fill:#000000;fill-opacity:1;stroke:none"
           sodipodi:type="arc" />
        <path
           sodipodi:type="arc"
           style="fill:#000000;fill-opacity:1;stroke:none"
           id="path9198"
           sodipodi:cx="332.16342"
           sodipodi:cy="32.944027"
           sodipodi:rx="3.3587573"
           sodipodi:ry="3.3587573"
           d="m 335.52218,32.944027 c 0,1.85499 -1.50377,3.358757 -3.35876,3.358757 -1.85499,0 -3.35876,-1.503767 -3.35876,-3.358757 0,-1.85499 1.50377,-3.358757 3.35876,-3.358757 1.85499,0 3.35876,1.503767 3.35876,3.358757 z"
           transform="matrix(-1.6884987,0,0,1.6884987,1072.2084,941.71027)" />
      </g>
      <path
         id="path9200"
         style="fill:#000000;fill-opacity:1;fill-rule:evenodd;stroke:none"
         d="m -307.71331,876.17437 c 0,0.2 -0.0668,0.3159 -0.24007,0.4159 -3.8744,2.2391 -7.74886,4.4781 -11.62326,6.7171 -0.14013,0.081 -0.24025,0.023 -0.24025,-0.1387 0,-1.845 0,-3.6901 0,-5.535 0,-0.2002 0.0668,-0.3158 0.24002,-0.416 3.87446,-2.239 7.74886,-4.4779 11.62326,-6.717 0.14013,-0.081 0.2403,-0.023 0.2403,0.1387 0,1.8449 0,3.69 0,5.535 z m -11.86367,24.714 c 2.06591,-1.195 4.13189,-2.3898 6.19786,-3.5847 0.0779,-0.043 0.15572,-0.088 0.23352,-0.1312 0.11804,-0.066 0.16347,-0.1439 0.16347,-0.2792 0,-0.088 0,-0.1767 0,-0.2651 0,-2.4282 0,-4.8566 0,-7.2849 0,-0.1067 0.0356,-0.1684 0.12789,-0.2217 1.63356,-0.9451 3.26707,-1.8901 4.90057,-2.8351 0.14013,-0.081 0.24036,-0.024 0.24036,0.1386 0,4.4734 0,8.9467 0,13.4201 0,0.2 -0.0668,0.3158 -0.24007,0.4159 -3.8744,2.239 -7.74886,4.4779 -11.62326,6.7169 -0.14013,0.081 -0.24025,0.023 -0.24025,-0.1386 0,-1.845 0,-3.6901 0,-5.5351 0,-0.2 0.0668,-0.3158 0.23991,-0.4159 z m 11.86367,-16.8213 c 0,0.2 -0.0668,0.3159 -0.2399,0.4159 -2.06597,1.1949 -4.13195,2.3899 -6.19793,3.5847 -0.0763,0.043 -0.15272,0.087 -0.22908,0.1308 -0.11655,0.066 -0.16147,0.1439 -0.16147,0.2782 0,0.089 0,0.1776 0,0.2664 0,2.4283 0,4.8566 0,7.2849 0,0.1067 -0.0356,0.1685 -0.12805,0.2219 -1.63563,0.9451 -3.27127,1.8902 -4.9069,2.8353 -0.14013,0.081 -0.24025,0.023 -0.24025,-0.1387 0,-4.4734 0,-8.9468 0,-13.4202 0,-0.2001 0.0668,-0.3159 0.24002,-0.416 3.87446,-2.239 7.74886,-4.478 11.62326,-6.7169 0.14013,-0.081 0.2403,-0.023 0.2403,0.1386 0,1.8451 0,3.6901 0,5.5351 z"
         inkscape:connector-curvature="0" />
      <path
         inkscape:connector-curvature="0"
         d="m -313.79424,918.80182 c 4.45808,0 8.25376,1.55642 11.38404,4.66777 1.49815,1.49865 2.6372,3.21146 3.41516,5.13694 0.77746,1.92597 1.16744,3.96998 1.16744,6.13304 0,2.18198 -0.38499,4.22649 -1.1525,6.13254 -0.76849,1.90657 -1.90257,3.59098 -3.40071,5.05176 -1.55543,1.53652 -3.32003,2.71342 -5.29383,3.52923 -1.97279,0.81581 -4.01283,1.22372 -6.1186,1.22372 -2.10578,0 -4.1219,-0.40243 -6.04788,-1.20978 -1.92547,-0.80585 -3.65223,-1.97279 -5.17976,-3.49983 -1.52754,-1.52704 -2.68951,-3.24931 -3.48639,-5.16582 -0.79688,-1.91651 -1.19533,-3.93663 -1.19533,-6.06182 0,-2.10628 0.40293,-4.13136 1.20928,-6.07627 0.80635,-1.9449 1.97826,-3.6856 3.51477,-5.2226 3.03563,-3.09191 6.76358,-4.63888 11.18431,-4.63888 z m 0.0577,2.87477 c -3.64278,0 -6.7073,1.27154 -9.1931,3.81361 -1.2526,1.27153 -2.21535,2.69895 -2.88872,4.28327 -0.67436,1.58431 -1.01055,3.23984 -1.01055,4.9666 0,1.70783 0.33619,3.35389 1.01055,4.93721 0.67387,1.58532 1.63612,2.9988 2.88872,4.24144 1.25212,1.24315 2.66509,2.19094 4.24095,2.84638 1.57433,0.65444 3.22538,0.98167 4.95215,0.98167 1.70732,0 3.36186,-0.33121 4.96709,-0.99562 1.60325,-0.6649 3.04859,-1.62216 4.33955,-2.87427 2.4853,-2.42852 3.72744,-5.47363 3.72744,-9.13631 0,-1.76461 -0.32274,-3.43409 -0.96772,-5.00894 -0.64398,-1.57485 -1.58381,-2.97837 -2.81599,-4.21255 -2.563,-2.56149 -5.64546,-3.84249 -9.25037,-3.84249 z m -0.19972,10.41682 -2.13516,1.11016 c -0.22812,-0.47365 -0.50752,-0.80635 -0.83923,-0.99611 -0.33219,-0.18926 -0.6405,-0.28439 -0.92538,-0.28439 -1.42244,0 -2.13466,0.93883 -2.13466,2.8175 0,0.85365 0.18029,1.53599 0.54038,2.04849 0.3606,0.5125 0.89202,0.769 1.59428,0.769 0.92987,0 1.5843,-0.45571 1.96433,-1.36617 l 1.96332,0.99611 c -0.41736,0.77846 -0.9961,1.39007 -1.73621,1.83584 -0.73912,0.44626 -1.55542,0.66888 -2.44745,0.66888 -1.42293,0 -2.57144,-0.43579 -3.44404,-1.30938 -0.87259,-0.8726 -1.30888,-2.08685 -1.30888,-3.64228 0,-1.51807 0.44126,-2.72237 1.32333,-3.61438 0.88206,-0.89151 1.99669,-1.33777 3.34443,-1.33777 1.97379,-8.5e-4 3.38677,0.7675 4.24094,2.3045 z m 9.19259,0 -2.10627,1.11016 c -0.22762,-0.47365 -0.50802,-0.80635 -0.83973,-0.99611 -0.3327,-0.18926 -0.65095,-0.28439 -0.95326,-0.28439 -1.42295,0 -2.13517,0.93883 -2.13517,2.8175 0,0.85365 0.18079,1.53599 0.54089,2.04849 0.36009,0.5125 0.89102,0.769 1.59428,0.769 0.92886,0 1.58381,-0.45571 1.96282,-1.36617 l 1.99223,0.99611 c -0.43581,0.77846 -1.0245,1.39007 -1.76363,1.83584 -0.7401,0.44626 -1.54644,0.66888 -2.41904,0.66888 -1.44236,0 -2.59437,-0.43579 -3.457,-1.30938 -0.86462,-0.8726 -1.29594,-2.08685 -1.29594,-3.64228 0,-1.51807 0.44079,-2.72237 1.32384,-3.61438 0.88155,-0.89151 1.9962,-1.33777 3.34343,-1.33777 1.9733,-8.5e-4 3.37831,0.7675 4.21255,2.3045 z"
         id="path9202"
         style="fill:#000000" />
    </g>
    <g
       id="g9044">
      <g
         transform="matrix(0.85,0,0,0.85,-392.0314,271.49694)"
         id="g4693">
        <g
           id="g3949"
           inkscape:export-filename="/Users/klayman/Projects/lines/gears.png"
           inkscape:export-xdpi="90"
           inkscape:export-ydpi="90">
          <path
             inkscape:connector-curvature="0"
             style="fill:#ffffff;fill-opacity:1;fill-rule:nonzero;stroke:#ffffff;stroke-width:1.17647064;stroke-opacity:1"
             d="m 52.941942,980.39251 c -6.903559,0 -12.5,5.59644 -12.5,12.5 0,6.90356 5.596441,12.49999 12.5,12.49999 6.903559,0 12.5,-5.59643 12.5,-12.49999 0,-6.90356 -5.596441,-12.5 -12.5,-12.5 z m 0,4 c 4.69442,0 8.5,3.80558 8.5,8.5 0,4.69442 -3.80558,8.49999 -8.5,8.49999 -4.69442,0 -8.5,-3.80557 -8.5,-8.49999 0,-4.69442 3.80558,-8.5 8.5,-8.5 z"
             id="path2818" />
          <path
             inkscape:connector-curvature="0"
             style="fill:#ffffff;fill-opacity:1;fill-rule:nonzero;stroke:#ffffff;stroke-width:0.11764706;stroke-linecap:square;stroke-linejoin:miter;stroke-miterlimit:4;stroke-opacity:1;stroke-dashoffset:0"
             d="m 51.441942,976.89251 c 1,0 2,0 3,0 0,1 2,6 2,6 l -7,0 c 0,0 2,-5 2,-6 z"
             id="path2822"
             sodipodi:nodetypes="ccccc"
             inkscape:transform-center-y="-13" />
          <path
             inkscape:connector-curvature="0"
             inkscape:transform-center-x="7.5901945"
             inkscape:transform-center-y="-9.31579"
             sodipodi:nodetypes="ccccc"
             id="path3107"
             d="m 41.508273,981.59998 c 0.766044,-0.64279 1.532089,-1.28558 2.298133,-1.92837 0.642789,0.76605 5.388816,3.3107 5.388816,3.3107 l -5.362311,4.49952 c 0,0 -1.68185,-5.1158 -2.324638,-5.88185 z"
             style="fill:#ffffff;fill-opacity:1;fill-rule:nonzero;stroke:#ffffff;stroke-width:0.11764706;stroke-linecap:square;stroke-linejoin:miter;stroke-miterlimit:4;stroke-opacity:1;stroke-dashoffset:0" />
          <path
             inkscape:connector-curvature="0"
             inkscape:transform-center-x="12.628852"
             inkscape:transform-center-y="-1.73648"
             sodipodi:nodetypes="ccccc"
             id="path3109"
             d="m 36.924546,991.59135 c 0.173648,-0.98481 0.347296,-1.96961 0.520944,-2.95442 0.984808,0.17365 6.256143,-0.92773 6.256143,-0.92773 l -1.215537,6.89366 c 0,0 -4.576743,-2.83786 -5.56155,-3.01151 z"
             style="fill:#ffffff;fill-opacity:1;fill-rule:nonzero;stroke:#ffffff;stroke-width:0.11764706;stroke-linecap:square;stroke-linejoin:miter;stroke-miterlimit:4;stroke-opacity:1;stroke-dashoffset:0" />
          <path
             inkscape:connector-curvature="0"
             style="fill:#ffffff;fill-opacity:1;fill-rule:nonzero;stroke:#ffffff;stroke-width:0.11764706;stroke-linecap:square;stroke-linejoin:miter;stroke-miterlimit:4;stroke-opacity:1;stroke-dashoffset:0"
             d="m 39.835535,1002.1915 c -0.500002,-0.866 -1.000005,-1.732 -1.500007,-2.59803 0.866031,-0.5 4.196161,-4.73205 4.196161,-4.73205 l 3.500007,6.06218 c 0,0 -5.33013,0.7679 -6.196161,1.2679 z"
             id="path3111"
             sodipodi:nodetypes="ccccc"
             inkscape:transform-center-y="5.633965"
             inkscape:transform-center-x="10.75833" />
          <path
             inkscape:connector-curvature="0"
             inkscape:transform-center-x="3.506569"
             inkscape:transform-center-y="11.87397"
             sodipodi:nodetypes="ccccc"
             id="path3113"
             d="m 48.879159,1008.4406 c -0.939693,-0.342 -1.879386,-0.684 -2.819078,-1.0261 0.34202,-0.9397 0.172735,-6.3222 0.172735,-6.3222 l 6.577849,2.3942 c 0,0 -3.589486,4.0144 -3.931506,4.9541 z"
             style="fill:#ffffff;fill-opacity:1;fill-rule:nonzero;stroke:#ffffff;stroke-width:0.11764706;stroke-linecap:square;stroke-linejoin:miter;stroke-miterlimit:4;stroke-opacity:1;stroke-dashoffset:0" />
          <path
             inkscape:connector-curvature="0"
             style="fill:#ffffff;fill-opacity:1;fill-rule:nonzero;stroke:#ffffff;stroke-width:0.11764706;stroke-linecap:square;stroke-linejoin:miter;stroke-miterlimit:4;stroke-opacity:1;stroke-dashoffset:0"
             d="m 59.823804,1007.4145 c -0.939693,0.3421 -1.879387,0.6841 -2.81908,1.0261 -0.34202,-0.9397 -3.931505,-4.9541 -3.931505,-4.9541 l 6.577851,-2.3942 c 0,0 -0.169285,5.3825 0.172734,6.3222 z"
             id="path3115"
             sodipodi:nodetypes="ccccc"
             inkscape:transform-center-y="11.87397"
             inkscape:transform-center-x="-3.5065695" />
          <path
             inkscape:connector-curvature="0"
             style="fill:#ffffff;fill-opacity:1;fill-rule:nonzero;stroke:#ffffff;stroke-width:0.11764706;stroke-linecap:square;stroke-linejoin:miter;stroke-miterlimit:4;stroke-opacity:1;stroke-dashoffset:0"
             d="m 67.548348,999.59347 c -0.500001,0.86603 -0.999998,1.73203 -1.499998,2.59803 -0.866026,-0.5 -6.196154,-1.2679 -6.196154,-1.2679 l 3.500001,-6.06218 c 0,0 3.330127,4.23205 4.196151,4.73205 z"
             id="path3117"
             sodipodi:nodetypes="ccccc"
             inkscape:transform-center-y="5.6339648"
             inkscape:transform-center-x="-10.75833" />
          <path
             inkscape:connector-curvature="0"
             inkscape:transform-center-x="-7.5901915"
             inkscape:transform-center-y="-9.31578"
             sodipodi:nodetypes="ccccc"
             id="path3119"
             d="m 62.077481,979.67163 c 0.766041,0.64277 1.532087,1.28556 2.29814,1.92835 -0.642797,0.76604 -2.324645,5.88185 -2.324645,5.88185 l -5.362331,-4.49955 c 0,0 4.746045,-2.5446 5.388836,-3.31065 z"
             style="fill:#ffffff;fill-opacity:1;fill-rule:nonzero;stroke:#ffffff;stroke-width:0.11764706;stroke-linecap:square;stroke-linejoin:miter;stroke-miterlimit:4;stroke-opacity:1;stroke-dashoffset:0" />
          <path
             inkscape:connector-curvature="0"
             style="fill:#ffffff;fill-opacity:1;fill-rule:nonzero;stroke:#ffffff;stroke-width:0.11764706;stroke-linecap:square;stroke-linejoin:miter;stroke-miterlimit:4;stroke-opacity:1;stroke-dashoffset:0"
             d="m 68.438389,988.63694 c 0.173656,0.98479 0.347304,1.9696 0.520958,2.95442 -0.984813,0.17364 -5.561562,3.0115 -5.561562,3.0115 l -1.215529,-6.89369 c 0,0 5.271319,1.10142 6.256133,0.92777 z"
             id="path3121"
             sodipodi:nodetypes="ccccc"
             inkscape:transform-center-y="-1.736495"
             inkscape:transform-center-x="-12.62886" />
        </g>
        <g
           id="g3909"
           transform="matrix(0.93172884,-0.36315475,0.36315475,0.93172884,-362.14843,80.85529)"
           style="fill:#ffffff;fill-opacity:1;stroke:#ffffff;stroke-width:1.17647064;stroke-opacity:1"
           inkscape:export-filename="/Users/klayman/Projects/lines/gears.png"
           inkscape:export-xdpi="90"
           inkscape:export-ydpi="90">
          <path
             inkscape:connector-curvature="0"
             id="path3123"
             d="m 30.910715,996.6921 c -4.413558,0 -7.991453,3.5779 -7.991453,7.9915 0,4.4136 3.577895,7.9914 7.991453,7.9914 4.413557,0 7.991451,-3.5778 7.991451,-7.9914 0,-4.4136 -3.577894,-7.9915 -7.991451,-7.9915 z m 0,2.55729 c 3.001218,0 5.434186,2.43301 5.434186,5.43421 0,3.0012 -2.432968,5.4342 -5.434186,5.4342 -3.00122,0 -5.434188,-2.433 -5.434188,-5.4342 0,-3.0012 2.432968,-5.43421 5.434188,-5.43421 z"
             style="fill:#ffffff;fill-opacity:1;fill-rule:nonzero;stroke:#ffffff;stroke-width:1.19658303;stroke-opacity:1" />
          <path
             inkscape:connector-curvature="0"
             inkscape:transform-center-x="7.372491"
             inkscape:transform-center-y="1.9001898"
             sodipodi:nodetypes="ccccc"
             id="path3125"
             d="m 20.895239,1009.9712 c -0.345202,-0.9386 -0.690405,-1.8771 -1.035608,-2.8156 0.938529,-0.3452 4.940735,-3.9482 4.940735,-3.9482 l 2.416449,6.5696 c 0,0 -5.383046,-0.151 -6.321576,0.1942 z"
             style="fill:#ffffff;fill-opacity:1;fill-rule:nonzero;stroke:#ffffff;stroke-width:0.11764706;stroke-linecap:square;stroke-linejoin:miter;stroke-miterlimit:4;stroke-opacity:1;stroke-dashoffset:0" />
          <path
             inkscape:connector-curvature="0"
             style="fill:#ffffff;fill-opacity:1;fill-rule:nonzero;stroke:#ffffff;stroke-width:0.11764706;stroke-linecap:square;stroke-linejoin:miter;stroke-miterlimit:4;stroke-opacity:1;stroke-dashoffset:0"
             d="m 32.839308,1015.8466 c -0.999267,0.038 -1.998534,0.077 -2.997802,0.1149 -0.03829,-0.9993 -2.228221,-5.919 -2.228221,-5.919 l 6.994864,-0.2681 c 0,0 -1.807128,5.073 -1.768841,6.0722 z"
             id="path3901"
             sodipodi:nodetypes="ccccc"
             inkscape:transform-center-y="8.1788398"
             inkscape:transform-center-x="-0.200003" />
          <path
             inkscape:connector-curvature="0"
             style="fill:#ffffff;fill-opacity:1;fill-rule:nonzero;stroke:#ffffff;stroke-width:0.11764706;stroke-linecap:square;stroke-linejoin:miter;stroke-miterlimit:4;stroke-opacity:1;stroke-dashoffset:0"
             d="m 42.118138,1006.3028 c -0.272421,0.9622 -0.544782,1.9244 -0.817144,2.8865 -0.962189,-0.2723 -6.317832,0.2901 -6.317832,0.2901 l 1.906566,-6.7353 c 0,0 4.26622,3.2863 5.22841,3.5587 z"
             id="path3903"
             sodipodi:nodetypes="ccccc"
             inkscape:transform-center-y="1.4226398"
             inkscape:transform-center-x="-7.639936" />
          <path
             inkscape:connector-curvature="0"
             inkscape:transform-center-x="4.2987245"
             inkscape:transform-center-y="-5.8444152"
             sodipodi:nodetypes="ccccc"
             id="path3905"
             d="m 22.792239,996.79611 c 0.786086,-0.6181 1.571593,-1.237 2.357738,-1.85502 0.618354,0.78595 5.281763,3.47885 5.281763,3.47885 l -5.501369,4.32836 c 0,0 -1.519837,-5.16632 -2.138132,-5.95219 z"
             style="fill:#ffffff;fill-opacity:1;fill-rule:nonzero;stroke:#ffffff;stroke-width:0.11764706;stroke-linecap:square;stroke-linejoin:miter;stroke-miterlimit:4;stroke-opacity:1;stroke-dashoffset:0" />
          <path
             inkscape:connector-curvature="0"
             style="fill:#ffffff;fill-opacity:1;fill-rule:nonzero;stroke:#ffffff;stroke-width:0.11764706;stroke-linecap:square;stroke-linejoin:miter;stroke-miterlimit:4;stroke-opacity:1;stroke-dashoffset:0"
             d="m 35.908657,994.52891 c 0.830761,0.55661 1.662105,1.11242 2.492809,1.66911 -0.5564,0.83096 -1.676428,6.09828 -1.676428,6.09828 l -5.816531,-3.89458 c 0,0 4.443806,-3.04193 5.00015,-3.87281 z"
             id="path3907"
             sodipodi:nodetypes="ccccc"
             inkscape:transform-center-y="-6.2765052"
             inkscape:transform-center-x="-3.7442725" />
        </g>
      </g>
      <g
         transform="matrix(1.4971148,0,0,1.4971148,-492.72774,-495.442)"
         id="g4401">
        <g
           id="g4391"
           inkscape:transform-center-x="2.3864855"
           inkscape:transform-center-y="-2.8284272">
          <path
             inkscape:connector-curvature="0"
             sodipodi:nodetypes="ccccc"
             id="path4359"
             d="m 99.631968,979.63124 c -6.558915,-6.34948 -16.323684,-2.14001 -15.848012,5.60744 0.497704,0.33499 1.172349,0.27996 2.027973,0.33499 1.267858,-4.6007 6.094862,-8.92341 12.573406,-4.31732 0.397624,-0.51422 0.950577,-1.13445 1.246633,-1.62511 z"
             style="fill:#ffffff;fill-opacity:1;stroke:none" />
          <path
             inkscape:connector-curvature="0"
             sodipodi:nodetypes="cccc"
             id="path4361"
             d="m 81.235666,982.39898 3.547686,7.43845 4.705144,-6.56846 c -2.157257,0.44151 -6.064742,0.64777 -8.25283,-0.86999 z"
             style="fill:#ffffff;fill-opacity:1;stroke:none" />
        </g>
        <g
           inkscape:transform-center-y="2.8284138"
           inkscape:transform-center-x="-2.3864805"
           id="g4395"
           transform="matrix(-1,0,0,-1,185.6406,1972.0349)">
          <path
             inkscape:connector-curvature="0"
             style="fill:#ffffff;fill-opacity:1;stroke:none"
             d="m 99.631968,979.63124 c -6.558915,-6.34948 -16.323684,-2.14001 -15.848012,5.60744 0.497704,0.33499 1.172349,0.27996 2.027973,0.33499 1.267858,-4.6007 6.094862,-8.92341 12.573406,-4.31732 0.397624,-0.51422 0.950577,-1.13445 1.246633,-1.62511 z"
             id="path4397"
             sodipodi:nodetypes="ccccc" />
          <path
             inkscape:connector-curvature="0"
             style="fill:#ffffff;fill-opacity:1;stroke:none"
             d="m 81.235666,982.39898 3.547686,7.43845 4.705144,-6.56846 c -2.157257,0.44151 -6.064742,0.64777 -8.25283,-0.86999 z"
             id="path4399"
             sodipodi:nodetypes="cccc" />
        </g>
      </g>
      <text
         transform="scale(1.0889688,0.91829995)"
         id="text4409"
         y="1183.6471"
         x="-332.53842"
         style="font-size:43.06941986px;font-style:normal;font-weight:normal;fill:#000000;fill-opacity:1;stroke:#ffffff;stroke-width:1.42243516;stroke-miterlimit:4;stroke-opacity:1;stroke-dasharray:none;font-family:Bitstream Vera Sans"
         xml:space="preserve"><tspan
           style="font-style:normal;font-variant:normal;font-weight:normal;font-stretch:normal;fill:#ffffff;stroke:#ffffff;stroke-width:1.42243516;stroke-miterlimit:4;stroke-opacity:1;stroke-dasharray:none;font-family:Trebuchet MS;-inkscape-font-specification:Trebuchet MS"
           y="1183.6471"
           x="-332.53842"
           id="tspan4411"
           sodipodi:role="line">?</tspan></text>
      <path
         transform="matrix(1.3000605,0,0,1.3000605,-457.60744,967.46463)"
         d="m 79.875008,35.243828 c 1.194602,0 3.181154,4.970318 4.147607,5.672487 0.966454,0.70217 6.307385,1.05558 6.676538,2.191715 0.369152,1.136134 -3.744023,4.56137 -4.113175,5.697504 -0.369153,1.136135 0.945173,6.324872 -0.02128,7.027042 -0.966454,0.702169 -5.495087,-2.151237 -6.689689,-2.151237 -1.194603,0 -5.723236,2.853406 -6.68969,2.151236 -0.966454,-0.702169 0.347872,-5.890906 -0.02128,-7.027041 -0.369152,-1.136135 -4.482327,-4.56137 -4.113174,-5.697505 0.369152,-1.136134 5.710083,-1.489544 6.676537,-2.191714 0.966454,-0.702169 2.953005,-5.672487 4.147608,-5.672487 z"
         inkscape:randomized="0"
         inkscape:rounded="0.17"
         inkscape:flatsided="false"
         sodipodi:arg2="-0.9424778"
         sodipodi:arg1="-1.5707963"
         sodipodi:r2="7.0563316"
         sodipodi:r1="11.38118"
         sodipodi:cy="46.625008"
         sodipodi:cx="79.875008"
         sodipodi:sides="5"
         id="path4415"
         style="fill:none;stroke:#ffffff;stroke-width:3.28239012;stroke-linecap:square;stroke-linejoin:miter;stroke-miterlimit:4;stroke-opacity:1;stroke-dasharray:none;stroke-dashoffset:0"
         sodipodi:type="star" />
      <g
         transform="matrix(0.85,0,0,0.85,-648.45451,316.57847)"
         id="g4542">
        <path
           sodipodi:type="arc"
           style="fill:#ffffff;fill-opacity:1;stroke:none"
           id="path4536"
           sodipodi:cx="332.16342"
           sodipodi:cy="32.944027"
           sodipodi:rx="3.3587573"
           sodipodi:ry="3.3587573"
           d="m 335.52218,32.944027 c 0,1.85499 -1.50377,3.358757 -3.35876,3.358757 -1.85499,0 -3.35876,-1.503767 -3.35876,-3.358757 0,-1.85499 1.50377,-3.358757 3.35876,-3.358757 1.85499,0 3.35876,1.503767 3.35876,3.358757 z"
           transform="matrix(1.6884987,0,0,1.6884987,-225.50659,930.86776)" />
        <path
           transform="matrix(1.6884987,0,0,1.6884987,-214.16408,942.21027)"
           d="m 335.52218,32.944027 c 0,1.85499 -1.50377,3.358757 -3.35876,3.358757 -1.85499,0 -3.35876,-1.503767 -3.35876,-3.358757 0,-1.85499 1.50377,-3.358757 3.35876,-3.358757 1.85499,0 3.35876,1.503767 3.35876,3.358757 z"
           sodipodi:ry="3.3587573"
           sodipodi:rx="3.3587573"
           sodipodi:cy="32.944027"
           sodipodi:cx="332.16342"
           id="path4538"
           style="fill:#ffffff;fill-opacity:1;stroke:none"
           sodipodi:type="arc" />
        <path
           transform="matrix(1.6884987,0,0,1.6884987,-202.82157,953.55278)"
           d="m 335.52218,32.944027 c 0,1.85499 -1.50377,3.358757 -3.35876,3.358757 -1.85499,0 -3.35876,-1.503767 -3.35876,-3.358757 0,-1.85499 1.50377,-3.358757 3.35876,-3.358757 1.85499,0 3.35876,1.503767 3.35876,3.358757 z"
           sodipodi:ry="3.3587573"
           sodipodi:rx="3.3587573"
           sodipodi:cy="32.944027"
           sodipodi:cx="332.16342"
           id="path4540"
           style="fill:#ffffff;fill-opacity:1;stroke:none"
           sodipodi:type="arc" />
      </g>
      <g
         transform="matrix(0.82728074,0,0,0.82728074,-689.53483,386.25086)"
         id="g4639">
        <path
           transform="matrix(2.261971,0,0,2.261971,-354.4095,913.16919)"
           d="m 335.52218,32.944027 c 0,1.85499 -1.50377,3.358757 -3.35876,3.358757 -1.85499,0 -3.35876,-1.503767 -3.35876,-3.358757 0,-1.85499 1.50377,-3.358757 3.35876,-3.358757 1.85499,0 3.35876,1.503767 3.35876,3.358757 z"
           sodipodi:ry="3.3587573"
           sodipodi:rx="3.3587573"
           sodipodi:cy="32.944027"
           sodipodi:cx="332.16342"
           id="path4551"
           style="fill:#ffffff;fill-opacity:1;stroke:none"
           sodipodi:type="arc" />
        <path
           sodipodi:type="arc"
           style="fill:#ffffff;fill-opacity:1;stroke:none"
           id="path4553"
           sodipodi:cx="332.16342"
           sodipodi:cy="32.944027"
           sodipodi:rx="3.3587573"
           sodipodi:ry="3.3587573"
           d="m 335.52218,32.944027 c 0,1.85499 -1.50377,3.358757 -3.35876,3.358757 -1.85499,0 -3.35876,-1.503767 -3.35876,-3.358757 0,-1.85499 1.50377,-3.358757 3.35876,-3.358757 1.85499,0 3.35876,1.503767 3.35876,3.358757 z"
           transform="matrix(2.261971,0,0,2.261971,-336.53542,931.04328)" />
        <path
           sodipodi:type="arc"
           style="fill:#ffffff;fill-opacity:1;stroke:none"
           id="path4555"
           sodipodi:cx="332.16342"
           sodipodi:cy="32.944027"
           sodipodi:rx="3.3587573"
           sodipodi:ry="3.3587573"
           d="m 335.52218,32.944027 c 0,1.85499 -1.50377,3.358757 -3.35876,3.358757 -1.85499,0 -3.35876,-1.503767 -3.35876,-3.358757 0,-1.85499 1.50377,-3.358757 3.35876,-3.358757 1.85499,0 3.35876,1.503767 3.35876,3.358757 z"
           transform="matrix(2.261971,0,0,2.261971,-354.4095,931.04328)" />
        <path
           transform="matrix(2.261971,0,0,2.261971,-336.53542,913.16919)"
           d="m 335.52218,32.944027 c 0,1.85499 -1.50377,3.358757 -3.35876,3.358757 -1.85499,0 -3.35876,-1.503767 -3.35876,-3.358757 0,-1.85499 1.50377,-3.358757 3.35876,-3.358757 1.85499,0 3.35876,1.503767 3.35876,3.358757 z"
           sodipodi:ry="3.3587573"
           sodipodi:rx="3.3587573"
           sodipodi:cy="32.944027"
           sodipodi:cx="332.16342"
           id="path4560"
           style="fill:#ffffff;fill-opacity:1;stroke:none"
           sodipodi:type="arc" />
      </g>
      <g
         transform="matrix(0.85,0,0,0.85,-748.75452,409.00347)"
         id="g4660">
        <path
           transform="matrix(1.6884987,0,0,1.6884987,-107.50658,941.71027)"
           d="m 335.52218,32.944027 c 0,1.85499 -1.50377,3.358757 -3.35876,3.358757 -1.85499,0 -3.35876,-1.503767 -3.35876,-3.358757 0,-1.85499 1.50377,-3.358757 3.35876,-3.358757 1.85499,0 3.35876,1.503767 3.35876,3.358757 z"
           sodipodi:ry="3.3587573"
           sodipodi:rx="3.3587573"
           sodipodi:cy="32.944027"
           sodipodi:cx="332.16342"
           id="path4649"
           style="fill:#ffffff;fill-opacity:1;stroke:none"
           sodipodi:type="arc" />
        <path
           sodipodi:type="arc"
           style="fill:#ffffff;fill-opacity:1;stroke:none"
           id="path4651"
           sodipodi:cx="332.16342"
           sodipodi:cy="32.944027"
           sodipodi:rx="3.3587573"
           sodipodi:ry="3.3587573"
           d="m 335.52218,32.944027 c 0,1.85499 -1.50377,3.358757 -3.35876,3.358757 -1.85499,0 -3.35876,-1.503767 -3.35876,-3.358757 0,-1.85499 1.50377,-3.358757 3.35876,-3.358757 1.85499,0 3.35876,1.503767 3.35876,3.358757 z"
           transform="matrix(1.6884987,0,0,1.6884987,-96.16407,930.36776)" />
        <path
           sodipodi:type="arc"
           style="fill:#ffffff;fill-opacity:1;stroke:none"
           id="path4653"
           sodipodi:cx="332.16342"
           sodipodi:cy="32.944027"
           sodipodi:rx="3.3587573"
           sodipodi:ry="3.3587573"
           d="m 335.52218,32.944027 c 0,1.85499 -1.50377,3.358757 -3.35876,3.358757 -1.85499,0 -3.35876,-1.503767 -3.35876,-3.358757 0,-1.85499 1.50377,-3.358757 3.35876,-3.358757 1.85499,0 3.35876,1.503767 3.35876,3.358757 z"
           transform="matrix(1.6884987,0,0,1.6884987,-84.82156,941.71027)" />
        <path
           transform="matrix(1.6884987,0,0,1.6884987,-96.16407,953.05278)"
           d="m 335.52218,32.944027 c 0,1.85499 -1.50377,3.358757 -3.35876,3.358757 -1.85499,0 -3.35876,-1.503767 -3.35876,-3.358757 0,-1.85499 1.50377,-3.358757 3.35876,-3.358757 1.85499,0 3.35876,1.503767 3.35876,3.358757 z"
           sodipodi:ry="3.3587573"
           sodipodi:rx="3.3587573"
           sodipodi:cy="32.944027"
           sodipodi:cx="332.16342"
           id="path4658"
           style="fill:#ffffff;fill-opacity:1;stroke:none"
           sodipodi:type="arc" />
      </g>
      <g
         transform="matrix(0.77176728,0,0,0.77176728,-758.70633,533.0278)"
         id="g4685">
        <path
           transform="matrix(-1.6884987,0,0,1.6884987,1098.8935,928.36776)"
           d="m 335.52218,32.944027 c 0,1.85499 -1.50377,3.358757 -3.35876,3.358757 -1.85499,0 -3.35876,-1.503767 -3.35876,-3.358757 0,-1.85499 1.50377,-3.358757 3.35876,-3.358757 1.85499,0 3.35876,1.503767 3.35876,3.358757 z"
           sodipodi:ry="3.3587573"
           sodipodi:rx="3.3587573"
           sodipodi:cy="32.944027"
           sodipodi:cx="332.16342"
           id="path4670"
           style="fill:#ffffff;fill-opacity:1;stroke:none"
           sodipodi:type="arc" />
        <path
           sodipodi:type="arc"
           style="fill:#ffffff;fill-opacity:1;stroke:none"
           id="path4672"
           sodipodi:cx="332.16342"
           sodipodi:cy="32.944027"
           sodipodi:rx="3.3587573"
           sodipodi:ry="3.3587573"
           d="m 335.52218,32.944027 c 0,1.85499 -1.50377,3.358757 -3.35876,3.358757 -1.85499,0 -3.35876,-1.503767 -3.35876,-3.358757 0,-1.85499 1.50377,-3.358757 3.35876,-3.358757 1.85499,0 3.35876,1.503767 3.35876,3.358757 z"
           transform="matrix(-1.6884987,0,0,1.6884987,1085.5509,941.71027)" />
        <path
           sodipodi:type="arc"
           style="fill:#ffffff;fill-opacity:1;stroke:none"
           id="path4674"
           sodipodi:cx="332.16342"
           sodipodi:cy="32.944027"
           sodipodi:rx="3.3587573"
           sodipodi:ry="3.3587573"
           d="m 335.52218,32.944027 c 0,1.85499 -1.50377,3.358757 -3.35876,3.358757 -1.85499,0 -3.35876,-1.503767 -3.35876,-3.358757 0,-1.85499 1.50377,-3.358757 3.35876,-3.358757 1.85499,0 3.35876,1.503767 3.35876,3.358757 z"
           transform="matrix(-1.6884987,0,0,1.6884987,1072.2084,955.05278)" />
        <path
           transform="matrix(-1.6884987,0,0,1.6884987,1072.2084,928.36776)"
           d="m 335.52218,32.944027 c 0,1.85499 -1.50377,3.358757 -3.35876,3.358757 -1.85499,0 -3.35876,-1.503767 -3.35876,-3.358757 0,-1.85499 1.50377,-3.358757 3.35876,-3.358757 1.85499,0 3.35876,1.503767 3.35876,3.358757 z"
           sodipodi:ry="3.3587573"
           sodipodi:rx="3.3587573"
           sodipodi:cy="32.944027"
           sodipodi:cx="332.16342"
           id="path4679"
           style="fill:#ffffff;fill-opacity:1;stroke:none"
           sodipodi:type="arc" />
        <path
           sodipodi:type="arc"
           style="fill:#ffffff;fill-opacity:1;stroke:none"
           id="path4681"
           sodipodi:cx="332.16342"
           sodipodi:cy="32.944027"
           sodipodi:rx="3.3587573"
           sodipodi:ry="3.3587573"
           d="m 335.52218,32.944027 c 0,1.85499 -1.50377,3.358757 -3.35876,3.358757 -1.85499,0 -3.35876,-1.503767 -3.35876,-3.358757 0,-1.85499 1.50377,-3.358757 3.35876,-3.358757 1.85499,0 3.35876,1.503767 3.35876,3.358757 z"
           transform="matrix(-1.6884987,0,0,1.6884987,1085.5509,928.36776)" />
        <path
           transform="matrix(-1.6884987,0,0,1.6884987,1072.2084,941.71027)"
           d="m 335.52218,32.944027 c 0,1.85499 -1.50377,3.358757 -3.35876,3.358757 -1.85499,0 -3.35876,-1.503767 -3.35876,-3.358757 0,-1.85499 1.50377,-3.358757 3.35876,-3.358757 1.85499,0 3.35876,1.503767 3.35876,3.358757 z"
           sodipodi:ry="3.3587573"
           sodipodi:rx="3.3587573"
           sodipodi:cy="32.944027"
           sodipodi:cx="332.16342"
           id="path4683"
           style="fill:#ffffff;fill-opacity:1;stroke:none"
           sodipodi:type="arc" />
      </g>
      <path
         inkscape:connector-curvature="0"
         d="m -347.71331,876.17437 c 0,0.2 -0.0668,0.3159 -0.24007,0.4159 -3.8744,2.2391 -7.74886,4.4781 -11.62326,6.7171 -0.14013,0.081 -0.24025,0.023 -0.24025,-0.1387 0,-1.845 0,-3.6901 0,-5.535 0,-0.2002 0.0668,-0.3158 0.24002,-0.416 3.87446,-2.239 7.74886,-4.4779 11.62326,-6.717 0.14013,-0.081 0.2403,-0.023 0.2403,0.1387 0,1.8449 0,3.69 0,5.535 z m -11.86367,24.714 c 2.06591,-1.195 4.13189,-2.3898 6.19786,-3.5847 0.0779,-0.043 0.15572,-0.088 0.23352,-0.1312 0.11804,-0.066 0.16347,-0.1439 0.16347,-0.2792 0,-0.088 0,-0.1767 0,-0.2651 0,-2.4282 0,-4.8566 0,-7.2849 0,-0.1067 0.0356,-0.1684 0.12789,-0.2217 1.63356,-0.9451 3.26707,-1.8901 4.90057,-2.8351 0.14013,-0.081 0.24036,-0.024 0.24036,0.1386 0,4.4734 0,8.9467 0,13.4201 0,0.2 -0.0668,0.3158 -0.24007,0.4159 -3.8744,2.239 -7.74886,4.4779 -11.62326,6.7169 -0.14013,0.081 -0.24025,0.023 -0.24025,-0.1386 0,-1.845 0,-3.6901 0,-5.5351 0,-0.2 0.0668,-0.3158 0.23991,-0.4159 z m 11.86367,-16.8213 c 0,0.2 -0.0668,0.3159 -0.2399,0.4159 -2.06597,1.1949 -4.13195,2.3899 -6.19793,3.5847 -0.0763,0.043 -0.15272,0.087 -0.22908,0.1308 -0.11655,0.066 -0.16147,0.1439 -0.16147,0.2782 0,0.089 0,0.1776 0,0.2664 0,2.4283 0,4.8566 0,7.2849 0,0.1067 -0.0356,0.1685 -0.12805,0.2219 -1.63563,0.9451 -3.27127,1.8902 -4.9069,2.8353 -0.14013,0.081 -0.24025,0.023 -0.24025,-0.1387 0,-4.4734 0,-8.9468 0,-13.4202 0,-0.2001 0.0668,-0.3159 0.24002,-0.416 3.87446,-2.239 7.74886,-4.478 11.62326,-6.7169 0.14013,-0.081 0.2403,-0.023 0.2403,0.1386 0,1.8451 0,3.6901 0,5.5351 z"
         style="fill:#ffffff;fill-opacity:1;fill-rule:evenodd;stroke:none"
         id="path14" />
      <path
         style="fill:#ffffff"
         id="path8983"
         d="m -353.79424,918.80182 c 4.45808,0 8.25376,1.55642 11.38404,4.66777 1.49815,1.49865 2.6372,3.21146 3.41516,5.13694 0.77746,1.92597 1.16744,3.96998 1.16744,6.13304 0,2.18198 -0.38499,4.22649 -1.1525,6.13254 -0.76849,1.90657 -1.90257,3.59098 -3.40071,5.05176 -1.55543,1.53652 -3.32003,2.71342 -5.29383,3.52923 -1.97279,0.81581 -4.01283,1.22372 -6.1186,1.22372 -2.10578,0 -4.1219,-0.40243 -6.04788,-1.20978 -1.92547,-0.80585 -3.65223,-1.97279 -5.17976,-3.49983 -1.52754,-1.52704 -2.68951,-3.24931 -3.48639,-5.16582 -0.79688,-1.91651 -1.19533,-3.93663 -1.19533,-6.06182 0,-2.10628 0.40293,-4.13136 1.20928,-6.07627 0.80635,-1.9449 1.97826,-3.6856 3.51477,-5.2226 3.03563,-3.09191 6.76358,-4.63888 11.18431,-4.63888 z m 0.0577,2.87477 c -3.64278,0 -6.7073,1.27154 -9.1931,3.81361 -1.2526,1.27153 -2.21535,2.69895 -2.88872,4.28327 -0.67436,1.58431 -1.01055,3.23984 -1.01055,4.9666 0,1.70783 0.33619,3.35389 1.01055,4.93721 0.67387,1.58532 1.63612,2.9988 2.88872,4.24144 1.25212,1.24315 2.66509,2.19094 4.24095,2.84638 1.57433,0.65444 3.22538,0.98167 4.95215,0.98167 1.70732,0 3.36186,-0.33121 4.96709,-0.99562 1.60325,-0.6649 3.04859,-1.62216 4.33955,-2.87427 2.4853,-2.42852 3.72744,-5.47363 3.72744,-9.13631 0,-1.76461 -0.32274,-3.43409 -0.96772,-5.00894 -0.64398,-1.57485 -1.58381,-2.97837 -2.81599,-4.21255 -2.563,-2.56149 -5.64546,-3.84249 -9.25037,-3.84249 z m -0.19972,10.41682 -2.13516,1.11016 c -0.22812,-0.47365 -0.50752,-0.80635 -0.83923,-0.99611 -0.33219,-0.18926 -0.6405,-0.28439 -0.92538,-0.28439 -1.42244,0 -2.13466,0.93883 -2.13466,2.8175 0,0.85365 0.18029,1.53599 0.54038,2.04849 0.3606,0.5125 0.89202,0.769 1.59428,0.769 0.92987,0 1.5843,-0.45571 1.96433,-1.36617 l 1.96332,0.99611 c -0.41736,0.77846 -0.9961,1.39007 -1.73621,1.83584 -0.73912,0.44626 -1.55542,0.66888 -2.44745,0.66888 -1.42293,0 -2.57144,-0.43579 -3.44404,-1.30938 -0.87259,-0.8726 -1.30888,-2.08685 -1.30888,-3.64228 0,-1.51807 0.44126,-2.72237 1.32333,-3.61438 0.88206,-0.89151 1.99669,-1.33777 3.34443,-1.33777 1.97379,-8.5e-4 3.38677,0.7675 4.24094,2.3045 z m 9.19259,0 -2.10627,1.11016 c -0.22762,-0.47365 -0.50802,-0.80635 -0.83973,-0.99611 -0.3327,-0.18926 -0.65095,-0.28439 -0.95326,-0.28439 -1.42295,0 -2.13517,0.93883 -2.13517,2.8175 0,0.85365 0.18079,1.53599 0.54089,2.04849 0.36009,0.5125 0.89102,0.769 1.59428,0.769 0.92886,0 1.58381,-0.45571 1.96282,-1.36617 l 1.99223,0.99611 c -0.43581,0.77846 -1.0245,1.39007 -1.76363,1.83584 -0.7401,0.44626 -1.54644,0.66888 -2.41904,0.66888 -1.44236,0 -2.59437,-0.43579 -3.457,-1.30938 -0.86462,-0.8726 -1.29594,-2.08685 -1.29594,-3.64228 0,-1.51807 0.44079,-2.72237 1.32384,-3.61438 0.88155,-0.89151 1.9962,-1.33777 3.34343,-1.33777 1.9733,-8.5e-4 3.37831,0.7675 4.21255,2.3045 z"
         inkscape:connector-curvature="0" />
    </g>
  </g>
</svg>
