<?xml version="1.0" encoding="UTF-8" standalone="no"?>
<!-- Created with Inkscape (http://www.inkscape.org/) -->

<svg
   xmlns:dc="http://purl.org/dc/elements/1.1/"
   xmlns:cc="http://creativecommons.org/ns#"
   xmlns:rdf="http://www.w3.org/1999/02/22-rdf-syntax-ns#"
   xmlns:svg="http://www.w3.org/2000/svg"
   xmlns="http://www.w3.org/2000/svg"
   xmlns:sodipodi="http://sodipodi.sourceforge.net/DTD/sodipodi-0.dtd"
   xmlns:inkscape="http://www.inkscape.org/namespaces/inkscape"
   width="1000"
   height="1000"
   id="svg2"
   version="1.1"
   inkscape:version="0.48.2 r9819"
   sodipodi:docname="temp-mask.svg"
   inkscape:export-filename="/home/semyon/projects/lines-2012/concept/png/temp-mask.png"
   inkscape:export-xdpi="90"
   inkscape:export-ydpi="90">
  <sodipodi:namedview
     id="base"
     pagecolor="#ffffff"
     bordercolor="#666666"
     borderopacity="1.0"
     inkscape:pageopacity="0.0"
     inkscape:pageshadow="2"
     inkscape:zoom="0.49497475"
     inkscape:cx="661.73886"
     inkscape:cy="554.4456"
     inkscape:document-units="px"
     inkscape:current-layer="layer1"
     showgrid="true"
     inkscape:snap-page="true"
     inkscape:window-width="1506"
     inkscape:window-height="884"
     inkscape:window-x="204"
     inkscape:window-y="89"
     inkscape:window-maximized="0"
     units="px">
    <inkscape:grid
       type="xygrid"
       id="grid2985"
       empspacing="2"
       visible="true"
       enabled="true"
       snapvisiblegridlinesonly="true"
       color="#00a0ff"
       opacity="0.07843137"
       empcolor="#00a0ff"
       empopacity="0.15686275"
       spacingx="0.5px"
       spacingy="0.5px" />
  </sodipodi:namedview>
  <defs
     id="defs4" />
  <metadata
     id="metadata7">
    <rdf:RDF>
      <cc:Work
         rdf:about="">
        <dc:format>image/svg+xml</dc:format>
        <dc:type
           rdf:resource="http://purl.org/dc/dcmitype/StillImage" />
        <dc:title></dc:title>
      </cc:Work>
    </rdf:RDF>
  </metadata>
  <g
     inkscape:label="Layer 1"
     inkscape:groupmode="layer"
     id="layer1"
     transform="translate(0,-52.36216)">
    <g
       id="text2998"
       style="font-size:64px;font-style:normal;font-variant:normal;font-weight:600;font-stretch:normal;line-height:125%;letter-spacing:0px;word-spacing:0px;fill:#000000;fill-opacity:1;stroke:none;font-family:URW Gothic L;-inkscape-font-specification:URW Gothic L Semi-Bold"
       transform="translate(0,52.36216)" />
    <g
       id="text2986"
       style="font-size:144px;font-style:normal;font-variant:normal;font-weight:600;font-stretch:normal;line-height:125%;letter-spacing:0px;word-spacing:0px;fill:#000000;fill-opacity:1;stroke:none;font-family:URW Gothic L;-inkscape-font-specification:URW Gothic L Semi-Bold"
       transform="translate(0,-113.63784)">
      <path
         id="path2991"
         d="m 175.4977,-7.4720684 -16.128,0 -41.184,106.4160004 19.44,0 29.952,-80.928 31.536,80.928 17.856,0 -41.472,-106.4160004"
         inkscape:connector-curvature="0" />
      <path
         id="path2993"
         d="m 313.9132,98.943932 0,-106.4160004 -22.464,0 -44.064,77.4720004 0,-77.4720004 -19.728,0 0,106.4160004 22.032,0 44.496,-77.328 0,77.328 19.728,0"
         inkscape:connector-curvature="0" />
      <path
         id="path2995"
         d="m 333.4072,98.943932 19.728,0 0,-44.64 38.016,0 0,44.64 19.728,0 0,-106.4160004 -19.728,0 0,42.9120004 -38.016,0 0,-42.9120004 -19.728,0 0,106.4160004"
         inkscape:connector-curvature="0" />
      <path
         id="path2997"
         d="m 430.43845,98.943932 67.248,0 0,-18.864 -47.52,0 0,-24.768 45.936,0 0,-18.864 -45.936,0 0,-25.056 47.52,0 0,-18.8640004 -67.248,0 0,106.4160004"
         inkscape:connector-curvature="0" />
      <path
         id="path2999"
         d="m 593.27995,69.279932 c -8.64,9.071991 -16.12801,12.528 -26.352,12.528 -19.58398,0 -35.712,-16.41602 -35.712,-36.288 0,-8.639992 3.312,-17.856007 8.784,-24.192 6.47999,-7.631993 15.69601,-11.6640004 26.496,-11.6640004 12.38398,0 20.736,4.0320094 27.936,13.3920004 l 22.032,0 c -4.176,-9.215991 -7.92001,-14.2560063 -15.12,-20.1600004 -9.79199,-7.9199921 -22.32002,-12.24 -35.28,-12.24 -30.09597,0 -54.72,24.6240304 -54.72,54.7200004 0,30.671969 24.91203,55.439998 56.016,55.439998 21.74397,0 40.752,-12.096018 49.104,-31.535998 l -23.184,0"
         inkscape:connector-curvature="0" />
      <path
         id="path3001"
         d="m 666.25645,98.943932 c 31.10397,0 46.8,-13.680026 46.8,-39.168 0,-25.919975 -19.15203,-37.872 -46.8,-37.872 l -15.84,0 0,-29.3760004 -19.728,0 0,106.4160004 35.568,0 m -15.84,-18.864 0,-39.312 17.136,0 c 12.52798,0 25.92,7.344011 25.92,19.008 0,12.959987 -13.39202,20.304 -26.352,20.304 l -16.704,0 m 72.288,18.864 19.728,0 0,-106.4160004 -19.728,0 0,106.4160004"
         inkscape:connector-curvature="0" />
    </g>
    <g
       id="g9813"
       style="font-size:144px;font-style:normal;font-variant:normal;font-weight:600;font-stretch:normal;line-height:125%;letter-spacing:0px;word-spacing:0px;fill:#000000;fill-opacity:1;stroke:none;font-family:URW Gothic L;-inkscape-font-specification:URW Gothic L Semi-Bold">
      <path
         id="path3019"
         style=""
         d="M948.563080572 617.230097186C948.563080572 617.230097186 950.741396067 599.790573707 950.741396067 599.790573707C950.741396067 599.790573707 846.797680606 551.688943665 846.797680606 551.688943665C846.797680606 551.688943665 846.350156806 569.903498901 846.350156806 569.903498901C846.350156806 569.903498901 924.480597923 605.104962985 924.480597923 605.104962985C924.480597923 605.104962985 839.81919238 621.958175382 839.81919238 621.958175382C839.81919238 621.958175382 836.091892043 638.178834016 836.091892043 638.178834016C836.091892043 638.178834016 948.563080572 617.230097186 948.563080572 617.230097186M435.132062848 1000.92524059C435.132062848 1000.92524059 452.571586317 1003.10355608 452.571586317 1003.10355608C452.571586317 1003.10355608 499.326763726 899.159840605 499.326763726 899.159840605C499.326763726 899.159840605 482.458661097 898.712316806 482.458661097 898.712316806C482.458661097 898.712316806 447.257197026 976.842757933 447.257197026 976.842757933C447.257197026 976.842757933 430.403984528 892.181352399 430.403984528 892.181352399C430.403984528 892.181352399 414.183325866 888.454052087 414.183325866 888.454052087C414.183325866 888.454052087 435.132062848 1000.92524059 435.132062848 1000.92524059M51.4369211062 487.49422587C51.4369211062 487.49422587 49.2586054709 504.933749229 49.2586054709 504.933749229C49.2586054709 504.933749229 153.202319619 553.035378622 153.202319619 553.035378622C153.202319619 553.035378622 153.649843806 534.820823278 153.649843806 534.820823278C153.649843806 534.820823278 75.5194035649 499.6193597 75.5194035649 499.6193597C75.5194035649 499.6193597 160.180810127 482.766146301 160.180810127 482.766146301C160.180810127 482.766146301 163.908110453 466.545487578 163.908110453 466.545487578C163.908110453 466.545487578 51.4369211062 487.49422587 51.4369211062 487.49422587M564.867934165 103.799081125C564.867934165 103.799081125 547.428410794 101.620765479 547.428410794 101.620765479C547.428410794 101.620765479 499.326781378 205.564479619 499.326781378 205.564479619C499.326781378 205.564479619 517.541336719 206.012003806 517.541336719 206.012003806C517.541336719 206.012003806 552.742800312 127.881563575 552.742800312 127.881563575C552.742800312 127.881563575 569.596013608 212.542970147 569.596013608 212.542970147C569.596013608 212.542970147 585.816672304 216.270270497 585.816672304 216.270270497C585.816672304 216.270270497 564.867934165 103.799081125 564.867934165 103.799081125" />
      <path
         id="path3021"
         style=""
         d="M805.45843361 716.691165408C805.45843361 716.691165408 899.5749649 766.348870371 899.5749649 766.348870371C899.5749649 766.348870371 910.854765843 743.815349815 910.854765843 743.815349815C910.854765843 743.815349815 856.066562336 672.665609498 856.066562336 672.665609498C856.066562336 672.665609498 929.750525162 696.587940878 929.750525162 696.587940878C929.750525162 696.587940878 936.369195177 675.085055063 936.369195177 675.085055063C936.369195177 675.085055063 833.650326902 647.289112847 833.650326902 647.289112847C833.650326902 647.289112847 828.201087542 664.6738835 828.201087542 664.6738835C828.201087542 664.6738835 883.333577754 734.005181542 883.333577754 734.005181542C883.333577754 734.005181542 813.268354184 701.291464765 813.268354184 701.291464765C813.268354184 701.291464765 805.45843361 716.691165408 805.45843361 716.691165408M335.670994027 857.820593907C335.670994027 857.820593907 286.013289813 951.937125592 286.013289813 951.937125592C286.013289813 951.937125592 308.546810381 963.216926344 308.546810381 963.216926344C308.546810381 963.216926344 379.696550384 908.428722463 379.696550384 908.428722463C379.696550384 908.428722463 355.77421926 982.112685372 355.77421926 982.112685372C355.77421926 982.112685372 377.277105044 988.731355306 377.277105044 988.731355306C377.277105044 988.731355306 405.073047007 886.012486962 405.073047007 886.012486962C405.073047007 886.012486962 387.688276257 880.563247632 387.688276257 880.563247632C387.688276257 880.563247632 318.356978474 935.695738191 318.356978474 935.695738191C318.356978474 935.695738191 351.070694793 865.630514406 351.070694793 865.630514406C351.070694793 865.630514406 335.670994027 857.820593907 335.670994027 857.820593907M194.54156882 388.033155438C194.54156882 388.033155438 100.42503605 338.375453279 100.42503605 338.375453279C100.42503605 338.375453279 89.1452355672 360.908973966 89.1452355672 360.908973966C89.1452355672 360.908973966 143.933440138 432.058712525 143.933440138 432.058712525C143.933440138 432.058712525 70.2494767727 408.136382806 70.2494767727 408.136382806C70.2494767727 408.136382806 63.6308068456 429.639268499 63.6308068456 429.639268499C63.6308068456 429.639268499 166.349675671 457.435208683 166.349675671 457.435208683C166.349675671 457.435208683 171.798915319 440.050437893 171.798915319 440.050437893C171.798915319 440.050437893 116.666423932 370.719141465 116.666423932 370.719141465C116.666423932 370.719141465 186.731648421 403.432856274 186.731648421 403.432856274C186.731648421 403.432856274 194.54156882 388.033155438 194.54156882 388.033155438M664.329003997 246.903729117C664.329003997 246.903729117 713.986706904 152.787196742 713.986706904 152.787196742C713.986706904 152.787196742 691.45318623 141.507396068 691.45318623 141.507396068C691.45318623 141.507396068 620.303447357 196.295600265 620.303447357 196.295600265C620.303447357 196.295600265 644.225777331 122.611636983 644.225777331 122.611636983C644.225777331 122.611636983 622.722891608 115.992966974 622.722891608 115.992966974C622.722891608 115.992966974 594.926951171 218.711835731 594.926951171 218.711835731C594.926951171 218.711835731 612.311721865 224.161075409 612.311721865 224.161075409C612.311721865 224.161075409 681.64301855 169.028584368 681.64301855 169.028584368C681.64301855 169.028584368 648.929303283 239.093808644 648.929303283 239.093808644C648.929303283 239.093808644 664.329003997 246.903729117 664.329003997 246.903729117" />
      <path
         id="path3023"
         style=""
         d="M797.003474909 731.491235229C797.003474909 731.491235229 787.695731635 746.064950595 787.695731635 746.064950595C787.695731635 746.064950595 824.982363001 770.607580011 824.982363001 770.607580011C824.982363001 770.607580011 802.626195436 800.631113175 802.626195436 800.631113175C802.626195436 800.631113175 767.860450686 772.631511191 767.860450686 772.631511191C767.860450686 772.631511191 756.530826208 785.726910819 756.530826208 785.726910819C756.530826208 785.726910819 836.126604724 856.35509117 836.126604724 856.35509117C836.126604724 856.35509117 850.73750058 839.378949721 850.73750058 839.378949721C850.73750058 839.378949721 817.317526283 812.463203046 817.317526283 812.463203046C817.317526283 812.463203046 840.738971739 780.978820184 840.738971739 780.978820184C840.738971739 780.978820184 876.582249967 804.571412552 876.582249967 804.571412552C876.582249967 804.571412552 888.605889033 785.646680673 888.605889033 785.646680673C888.605889033 785.646680673 797.003474909 731.491235229 797.003474909 731.491235229M320.870924068 849.36563529C320.870924068 849.36563529 306.297208544 840.057892112 306.297208544 840.057892112C306.297208544 840.057892112 281.754579536 877.344523747 281.754579536 877.344523747C281.754579536 877.344523747 251.731046096 854.988356506 251.731046096 854.988356506C251.731046096 854.988356506 279.730647592 820.222611362 279.730647592 820.222611362C279.730647592 820.222611362 266.63524776 808.892986999 266.63524776 808.892986999C266.63524776 808.892986999 196.007068644 888.488766612 196.007068644 888.488766612C196.007068644 888.488766612 212.983210226 903.099662194 212.983210226 903.099662194C212.983210226 903.099662194 239.898956431 869.679687518 239.898956431 869.679687518C239.898956431 869.679687518 271.383339536 893.101132599 271.383339536 893.101132599C271.383339536 893.101132599 247.79074756 928.944411085 247.79074756 928.944411085C247.79074756 928.944411085 266.715479487 940.968049925 266.715479487 940.968049925C266.715479487 940.968049925 320.870924068 849.36563529 320.870924068 849.36563529M202.996527299 373.233085401C202.996527299 373.233085401 212.304270304 358.659369787 212.304270304 358.659369787C212.304270304 358.659369787 175.017638144 334.116741578 175.017638144 334.116741578C175.017638144 334.116741578 197.373804977 304.093207847 197.373804977 304.093207847C197.373804977 304.093207847 232.139550678 332.092808651 232.139550678 332.092808651C232.139550678 332.092808651 243.469174829 318.997408709 243.469174829 318.997408709C243.469174829 318.997408709 163.873393886 248.369231093 163.873393886 248.369231093C163.873393886 248.369231093 149.262498517 265.345372935 149.262498517 265.345372935C149.262498517 265.345372935 182.682473729 292.261118475 182.682473729 292.261118475C182.682473729 292.261118475 159.26102907 323.745501916 159.26102907 323.745501916C159.26102907 323.745501916 123.417750078 300.152910708 123.417750078 300.152910708C123.417750078 300.152910708 111.394111485 319.077642816 111.394111485 319.077642816C111.394111485 319.077642816 202.996527299 373.233085401 202.996527299 373.233085401M679.129073896 255.35868768C679.129073896 255.35868768 693.702789351 264.666430781 693.702789351 264.666430781C693.702789351 264.666430781 718.245417969 227.37979889 718.245417969 227.37979889C718.245417969 227.37979889 748.268951424 249.735966046 748.268951424 249.735966046C748.268951424 249.735966046 720.269350132 284.501711354 720.269350132 284.501711354C720.269350132 284.501711354 733.36474987 295.83133562 733.36474987 295.83133562C733.36474987 295.83133562 803.992928722 216.235555773 803.992928722 216.235555773C803.992928722 216.235555773 787.016787012 201.624660131 787.016787012 201.624660131C787.016787012 201.624660131 760.101041003 235.044634964 760.101041003 235.044634964C760.101041003 235.044634964 728.616657804 211.623189929 728.616657804 211.623189929C728.616657804 211.623189929 752.209249404 175.779911196 752.209249404 175.779911196C752.209249404 175.779911196 733.284517344 163.756272377 733.284517344 163.756272377C733.284517344 163.756272377 679.129073896 255.35868768 679.129073896 255.35868768" />
      <path
         id="path3025"
         style=""
         d="M745.57787482 797.227167243C745.57787482 797.227167243 700.759101554 835.171723212 700.759101554 835.171723212C700.759101554 835.171723212 711.505930777 850.674596078 711.505930777 850.674596078C711.505930777 850.674596078 745.562866064 823.288290446 745.562866064 823.288290446C745.562866064 823.288290446 762.001359304 841.813966049 762.001359304 841.813966049C762.001359304 841.813966049 726.725538801 870.234529729 726.725538801 870.234529729C726.725538801 870.234529729 737.84110758 885.475185647 737.84110758 885.475185647C737.84110758 885.475185647 774.521374504 855.923637584 774.521374504 855.923637584C774.521374504 855.923637584 791.151013014 874.66472802 791.151013014 874.66472802C791.151013014 874.66472802 750.637515047 907.123988115 750.637515047 907.123988115C750.637515047 907.123988115 761.384344498 922.62686131 761.384344498 922.62686131C761.384344498 922.62686131 819.921174247 873.364559212 819.921174247 873.364559212C819.921174247 873.364559212 745.57787482 797.227167243 745.57787482 797.227167243M255.134991135 797.940035663C255.134991135 797.940035663 217.190434465 753.12126275 217.190434465 753.12126275C217.190434465 753.12126275 201.687561826 763.868092301 201.687561826 763.868092301C201.687561826 763.868092301 229.073867956 797.925027284 229.073867956 797.925027284C229.073867956 797.925027284 210.548192663 814.363520873 210.548192663 814.363520873C210.548192663 814.363520873 182.127628441 779.087700782 182.127628441 779.087700782C182.127628441 779.087700782 166.886972754 790.203269878 166.886972754 790.203269878C166.886972754 790.203269878 196.438521363 826.883536339 196.438521363 826.883536339C196.438521363 826.883536339 177.697431241 843.513175202 177.697431241 843.513175202C177.697431241 843.513175202 145.238170616 802.999677764 145.238170616 802.999677764C145.238170616 802.999677764 129.735297648 813.746507543 129.735297648 813.746507543C129.735297648 813.746507543 178.997600474 872.283336429 178.997600474 872.283336429C178.997600474 872.283336429 255.134991135 797.940035663 255.134991135 797.940035663M254.42212597 307.497152037C254.42212597 307.497152037 299.240898197 269.552594992 299.240898197 269.552594992C299.240898197 269.552594992 288.494068464 254.04972248 288.494068464 254.04972248C288.494068464 254.04972248 254.437133913 281.436028937 254.437133913 281.436028937C254.437133913 281.436028937 237.998640037 262.910353898 237.998640037 262.910353898C237.998640037 262.910353898 273.274459753 234.489789259 273.274459753 234.489789259C273.274459753 234.489789259 262.158890466 219.249133711 262.158890466 219.249133711C262.158890466 219.249133711 225.478624352 248.800682794 225.478624352 248.800682794C225.478624352 248.800682794 208.848985198 230.059592929 208.848985198 230.059592929C208.848985198 230.059592929 249.362482339 197.600331728 249.362482339 197.600331728C249.362482339 197.600331728 238.615652378 182.097458887 238.615652378 182.097458887C238.615652378 182.097458887 180.078823914 231.359762636 180.078823914 231.359762636C180.078823914 231.359762636 254.42212597 307.497152037 254.42212597 307.497152037M744.865006341 306.784286812C744.865006341 306.784286812 782.809562685 351.603059393 782.809562685 351.603059393C782.809562685 351.603059393 798.312435424 340.856229988 798.312435424 340.856229988C798.312435424 340.856229988 770.926129465 306.799295134 770.926129465 306.799295134C770.926129465 306.799295134 789.451804813 290.360801606 789.451804813 290.360801606C789.451804813 290.360801606 817.872368911 325.636621734 817.872368911 325.636621734C817.872368911 325.636621734 833.11302469 314.521052764 833.11302469 314.521052764C833.11302469 314.521052764 803.561476154 277.840786187 803.561476154 277.840786187C803.561476154 277.840786187 822.302566331 261.211147386 822.302566331 261.211147386C822.302566331 261.211147386 854.761827003 301.724645056 854.761827003 301.724645056C854.761827003 301.724645056 870.264700071 290.977815423 870.264700071 290.977815423C870.264700071 290.977815423 821.002397051 232.440986096 821.002397051 232.440986096C821.002397051 232.440986096 744.865006341 306.784286812 744.865006341 306.784286812" />
      <path
         id="path3027"
         style=""
         d="M638.295579322 902.613135969C643.201544375 891.042812464 646.401729589 885.721979126 655.727198072 881.367883087C673.590066507 873.027643147 692.733329773 880.298809412 702.846243882 897.40452066C707.243163414 904.841787019 708.695102819 914.708048653 706.978621417 922.926213996C705.008822613 932.770707894 696.492696618 941.952624384 686.641849115 946.552021848C675.346218429 951.825993973 663.738050277 952.404403394 653.63725402 946.231115101C653.63725402 946.231115101 631.705620609 954.081710648 631.705620609 954.081710648C638.549676778 961.548993901 645.424630876 964.604394842 654.297334146 967.547342722C666.325324676 971.447456349 683.256233739 969.110056075 695.077243445 963.590782525C722.528269873 950.773795834 736.453910349 912.077124958 719.907445244 886.938743172C703.044301615 861.319244388 675.662244301 851.082860037 647.291804588 864.329124222C627.458773949 873.589240247 619.42601144 889.032234518 617.432260386 910.117859127C617.432260386 910.117859127 638.295579322 902.613135969 638.295579322 902.613135969M149.749021424 690.65774144C161.319345029 695.563706258 166.640177992 698.763891504 170.994274232 708.089359892C179.334514557 725.952228148 172.063348295 745.09549178 154.957637267 755.208406262C147.520371004 759.605325956 137.654109491 761.057265526 129.435944111 759.340784303C119.59145017 757.370985715 110.409533814 748.854859744 105.810136137 739.004012341C100.536163769 727.708381768 99.9577545179 716.100213411 106.131042605 705.999417028C106.131042605 705.999417028 98.2804469683 684.06778362 98.2804469683 684.06778362C90.8131638454 690.911839932 87.7577626964 697.786794259 84.8148149971 706.659497589C80.9147016153 718.687488199 83.2521018376 735.618397451 88.7713756421 747.439407038C101.588362925 774.890433189 140.285033542 788.816073136 165.423414973 772.269607492C191.042913396 755.406463314 201.279297712 728.024405469 188.033032915 699.653966041C178.772916462 679.820935602 163.329922864 671.78817321 142.244298217 669.794422558C142.244298217 669.794422558 149.749021424 690.65774144 149.749021424 690.65774144M361.704418728 202.111181617C356.798453963 213.681505245 353.598268808 219.002338198 344.272800447 223.356434499C326.409932246 231.696674941 307.266668632 224.425508804 297.153753989 207.319797872C292.756834224 199.88253165 291.304894576 190.01627015 293.021375728 181.798104754C294.99117423 171.953610796 303.507300199 162.771694347 313.358147573 158.172296607C324.653778111 152.898324165 336.261946528 152.319914829 346.362742939 158.493202869C346.362742939 158.493202869 368.294376339 150.642607135 368.294376339 150.642607135C361.450320002 143.175324036 354.575365624 140.119922923 345.70266228 137.176975264C333.674671653 133.276861938 316.743762315 135.614262285 304.922752764 141.133536167C277.471726696 153.950523629 263.546086937 192.647194487 280.092552856 217.785575737C296.955697315 243.405073975 324.337755069 253.641458109 352.70819441 240.395193127C372.541224788 231.135076545 380.573986975 215.692082988 382.567737554 194.606458334C382.567737554 194.606458334 361.704418728 202.111181617 361.704418728 202.111181617M850.250975776 414.066580847C838.680652248 409.160615846 833.35981892 405.960430722 829.00572282 396.634962268C820.665482763 378.772093887 827.936648903 359.628830639 845.042360056 349.515916368C852.479626373 345.118996766 862.345887995 343.667057283 870.564053353 345.383538614C880.408547267 347.353337332 889.590463851 355.869463326 894.189861379 365.720310798C899.463833577 377.01594145 900.042243083 388.624109662 893.868954837 398.724905948C893.868954837 398.724905948 901.719550481 420.656539351 901.719550481 420.656539351C909.186833711 413.812483156 912.242234616 406.937529006 915.185182455 398.064825723C919.085296027 386.036835175 916.747895628 369.105926027 911.228622001 357.284916357C898.41163513 329.833890013 859.714964012 315.908249723 834.576582408 332.454715104C808.957083809 349.317859014 798.72069964 376.699916237 811.96696401 405.070355863C821.227080165 424.903386441 836.670074394 432.936148745 857.75569901 434.929899726C857.75569901 434.929899726 850.250975776 414.066580847 850.250975776 414.066580847" />
      <path
         id="path3029"
         style=""
         d="M566.205373289 892.821805639C535.454265417 898.713493565 527.044933173 911.82603867 528.656839616 937.262310725C530.296066598 963.129707473 553.367308871 973.720668773 580.701623684 968.48361347C580.701623684 968.48361347 597.461048809 964.911084131 597.461048809 964.911084131C597.461048809 964.911084131 604.424924622 993.448936721 604.424924622 993.448936721C604.424924622 993.448936721 626.19270627 987.734619516 626.19270627 987.734619516C626.19270627 987.734619516 595.851931057 885.738438862 595.851931057 885.738438862C595.851931057 885.738438862 566.205373289 892.821805639 566.205373289 892.821805639M159.540352075 618.567535083C153.648663726 587.816427292 140.536120362 579.407095335 115.099848317 581.019001915C89.2324515778 582.658229036 78.6414887642 605.729471779 83.8785444432 633.06378652C83.8785444432 633.06378652 87.4510735182 649.823211764 87.4510735182 649.823211764C87.4510735182 649.823211764 58.9132210415 656.787088041 58.9132210415 656.787088041C58.9132210415 656.787088041 64.6275381903 678.554869817 64.6275381903 678.554869817C64.6275381903 678.554869817 166.62371829 648.214092742 166.62371829 648.214092742C166.62371829 648.214092742 159.540352075 618.567535083 159.540352075 618.567535083M433.794624988 211.902512095C464.545732771 206.010823706 472.95506467 192.898280364 471.343158087 167.462008318C469.703930963 141.59461158 446.632688189 131.003648768 419.298373455 136.240704481C419.298373455 136.240704481 402.538948199 139.813233586 402.538948199 139.813233586C402.538948199 139.813233586 395.575071864 111.275381123 395.575071864 111.275381123C395.575071864 111.275381123 373.807290054 116.989698335 373.807290054 116.989698335C373.807290054 116.989698335 404.14806743 218.985878345 404.14806743 218.985878345C404.14806743 218.985878345 433.794624988 211.902512095 433.794624988 211.902512095M840.459645619 486.156786782C846.351333584 516.907894647 859.463878669 525.317226833 884.900150723 523.705320386C910.767547471 522.0660934 921.35850877 498.994851097 916.121453432 471.660536291C916.121453432 471.660536291 912.548924063 454.901111154 912.548924063 454.901111154C912.548924063 454.901111154 941.086776639 447.937235283 941.086776639 447.937235283C941.086776639 447.937235283 935.372459371 426.169453601 935.372459371 426.169453601C935.372459371 426.169453601 833.376278807 456.510229114 833.376278807 456.510229114C833.376278807 456.510229114 840.459645619 486.156786782 840.459645619 486.156786782M583.669843955 908.394945458C583.669843955 908.394945458 592.989148225 946.585306492 592.989148225 946.585306492C592.989148225 946.585306492 575.870777125 950.202564581 575.870777125 950.202564581C563.484922059 952.575604051 548.892775888 946.99165479 547.568116313 935.403440957C546.096272429 922.527648581 556.087769988 913.966868466 568.900724186 911.511999918C568.900724186 911.511999918 583.669843955 908.394945458 583.669843955 908.394945458M143.967211967 636.032005991C143.967211967 636.032005991 105.776851085 645.351310882 105.776851085 645.351310882C105.776851085 645.351310882 102.159593266 628.232939709 102.159593266 628.232939709C99.7865536252 615.847084676 105.370503677 601.25493829 116.958717498 599.930278609C129.83450986 598.458434608 138.395289108 608.449932073 140.850157833 621.262886238C140.850157833 621.262886238 143.967211967 636.032005991 143.967211967 636.032005991M416.330154086 196.329372007C416.330154086 196.329372007 407.010849118 158.139011143 407.010849118 158.139011143C407.010849118 158.139011143 424.129220289 154.521753298 424.129220289 154.521753298C436.515075319 152.148713641 451.107221712 157.732663686 452.431881398 169.320877506C453.903725405 182.196669867 443.912227971 190.757449115 431.099273809 193.212317856C431.099273809 193.212317856 416.330154086 196.329372007 416.330154086 196.329372007M856.032785418 468.692316122C856.032785418 468.692316122 894.223146433 459.373011775 894.223146433 459.373011775C894.223146433 459.373011775 897.840404549 476.491382873 897.840404549 476.491382873C900.213444035 488.877237937 894.629494781 503.469384114 883.041280949 504.794043694C870.165488574 506.265887584 861.604708459 496.274390056 859.149839895 483.461435861C859.149839895 483.461435861 856.032785418 468.692316122 856.032785418 468.692316122M517.831021496 898.701309207C517.831021496 898.701309207 499.326763726 899.159840605 499.326763726 899.159840605C499.326763726 899.159840605 500.673216249 1005.5644774 500.673216249 1005.5644774C500.673216249 1005.5644774 521.871426051 1005.0377348 521.871426051 1005.0377348C521.871426051 1005.0377348 517.831021496 898.701309207 517.831021496 898.701309207M153.660850182 570.193183678C153.660850182 570.193183678 153.202319619 553.035378622 153.202319619 553.035378622C153.202319619 553.035378622 46.7976828278 551.688926099 46.7976828278 551.688926099C46.7976828278 551.688926099 47.3244246074 574.233588584 47.3244246074 574.233588584C47.3244246074 574.233588584 153.660850182 570.193183678 153.660850182 570.193183678M482.168976325 206.023010183C482.168976325 206.023010183 499.326781378 205.564479619 499.326781378 205.564479619C499.326781378 205.564479619 500.673233902 99.1598428278 500.673233902 99.1598428278C500.673233902 99.1598428278 478.128571413 99.6865846081 478.128571413 99.6865846081C478.128571413 99.6865846081 482.168976325 206.023010183 482.168976325 206.023010183M846.339149207 534.531138506C846.339149207 534.531138506 846.797680606 551.688943665 846.797680606 551.688943665C846.797680606 551.688943665 953.202317395 553.035396309 953.202317395 553.035396309C953.202317395 553.035396309 952.675574795 530.490733946 952.675574795 530.490733946C952.675574795 530.490733946 846.339149207 534.531138506 846.339149207 534.531138506" />
    </g>
  </g>
</svg>
